<svg width="512" height="512" xmlns="http://www.w3.org/2000/svg">

 <g>
  <title>background</title>
  <rect fill="none" id="canvas_background" height="402" width="582" y="-1" x="-1"/>
 </g>
 <g>
  <title>Layer 1</title>
  <path fill="#e5a9a9" id="svg_2" d="m491.5,85.3c-1.8,-0.2 -3.7,-0.2 -5.5,-0.2c-132.4,0 -264.9,0 -397.3,0c-5.4,0 -11.5,0.3 -15.2,4.2c-3.6,3.7 -3.8,9.5 -3.8,14.6c0,33.2 0,66.5 0,99.7c-15.2,-0.1 -30.5,-0.1 -45.7,-0.2c-4.7,0 -9.8,0.1 -13.3,3.1c-4.6,3.9 -4.7,10.9 -4.5,17c2.3,49.1 4.6,98.5 16.5,146.1c3.4,13.6 8.3,27.2 16.5,38.7c9.1,12.6 20.5,18.6 35.9,18.6c20.1,0 40.2,0 60.3,0c20.1,0 40.2,0 60.3,0c20.1,0 40.2,0 60.3,0c20.1,0 40.2,0 60.3,0c20.1,0 40.2,0 60.3,0c20.1,0 40.2,0 60.3,0c16.2,0 32.4,0 48.5,0c6,0 12.8,-0.3 16.8,-4.8c3.6,-4 3.8,-9.9 3.8,-15.2c0,-100.3 0,-200.6 0,-300.9c0,-6.1 -0.3,-13.1 -4.9,-17.2c-2.6,-2.4 -6.1,-3.2 -9.6,-3.5zm-14.5,312.6l-378.4,0l0,-283.8l378.4,0l0,283.8z"/>
  <path fill="#353533" id="svg_3" d="m196.7,229.7c5.5,-4.3 8.3,-10.6 8.3,-19c0,-5 -1.4,-9.3 -4.1,-13c-2.8,-3.7 -6.9,-6.1 -12.3,-7.1c4,-1.6 7,-4 9.1,-7.1c2.1,-3.2 3.1,-6.7 3.1,-10.7c0,-7.9 -2.9,-13.9 -8.6,-17.9c-5.8,-4 -13.8,-6 -24.1,-6l-28.6,0l0,87.4l33.8,0c10,-0.1 17.9,-2.3 23.4,-6.6zm-39.8,-67.5l11.1,0c5,0 8.8,1 11.4,2.9c2.5,1.9 3.8,4.9 3.8,8.9c0,3.7 -1.3,6.5 -3.8,8.4c-2.5,1.9 -6.1,2.9 -10.8,2.9l-11.7,0l0,-23.1zm0,35.3l16.1,0c4.8,0 8.5,1.1 10.9,3.4c2.4,2.3 3.6,5.5 3.6,9.8c0,4 -1.2,7 -3.7,9c-2.4,2 -6,3 -10.6,3l-16.3,0l0,-25.2z"/>
  <polygon fill="#353533" points="274.3999938964844,223.73727405071259 235.3000030517578,223.73727405071259 235.3000030517578,149.73727405071259 217.6999969482422,149.73727405071259 217.6999969482422,237.23727405071259 274.3999938964844,237.23727405071259 " id="XMLID_8_"/>
  <path fill="#353533" id="svg_4" d="m318.7,237.4c10.8,0 19.7,-3.5 26.4,-10.5c6.8,-7 10.1,-15.9 10.1,-26.6l0,-15.7c0,-10.7 -3.4,-19.5 -10.2,-26.6c-6.8,-7 -15.6,-10.5 -26.5,-10.5c-10.8,0 -19.5,3.5 -26.2,10.5c-6.7,7 -10.1,15.9 -10.1,26.6l0,15.7c0,10.7 3.4,19.6 10.1,26.6c6.9,7 15.6,10.5 26.4,10.5zm-18.9,-52.9c0,-6.8 1.7,-12.4 5,-16.8c3.3,-4.4 7.9,-6.5 13.8,-6.5c6,0 10.7,2.2 14.1,6.5c3.4,4.4 5.1,9.9 5.1,16.8l0,15.9c0,6.9 -1.7,12.6 -5,16.9c-3.4,4.4 -8,6.5 -14.1,6.5c-6,0 -10.6,-2.2 -13.9,-6.5c-3.3,-4.4 -5,-10 -5,-16.9l0,-15.9z"/>
  <path fill="#353533" id="XMLID_5_" d="m403.1,238.437277c8.5,0 15.5,-1.3 20.9,-3.9c5.4,-2.6 9.5,-5.7 12.2,-9.3l0,-33.7l-34.4,0l0,12.1l16.8,0l0,16.9c-1.3,1.3 -3.2,2.3 -5.6,3.2c-2.4,0.8 -5.7,1.3 -9.9,1.3c-5.6,0 -10.1,-2.1 -13.5,-6.2c-3.4,-4.2 -5,-9.5 -5,-16.1l0,-18.4c0,-6.5 1.6,-11.9 4.9,-16c3.3,-4.1 7.6,-6.2 13,-6.2c5.1,0 9,1.3 11.7,3.9c2.7,2.6 4,6.2 4,10.8l16.5,0l0.1,-0.4c0.2,-8.4 -2.5,-15.2 -8.2,-20.3c-5.7,-5.1 -13.9,-7.6 -24.6,-7.6c-10.2,0 -18.6,3.3 -25.2,10c-6.5,6.7 -9.8,15.3 -9.8,25.8l0,18.3c0,10.6 3.4,19.2 10.1,25.9c6.8,6.6 15.4,9.9 26,9.9z"/>
  <rect stroke="null" fill="#e5a9a9" y="262.8" x="139.399997" width="73.800646" id="XMLID_4_" height="23.2"/>
  <rect fill="#353533" y="302" x="139.4" width="135" id="XMLID_3_" height="23.2"/>
  <rect fill="#353533" y="341.3" x="139.4" width="135" id="XMLID_2_" height="23.2"/>
  <rect fill="#e5a9a9" y="262.8" x="299.1" width="137.1" id="XMLID_1_" height="101.7"/>
 </g>
</svg>