<?xml version="1.0" ?><!DOCTYPE svg  PUBLIC '-//W3C//DTD SVG 1.1//EN'  'http://www.w3.org/Graphics/SVG/1.1/DTD/svg11.dtd'><svg enable-background="new 0 0 256 256" id="Layer_1" version="1.1" viewBox="0 0 256 256" xml:space="preserve" xmlns="http://www.w3.org/2000/svg" xmlns:xlink="http://www.w3.org/1999/xlink"><g><circle cx="128" cy="128" fill="#F3756F" r="127"/><g><polygon fill="#0B2C48" points="128,200.6 49.3,166.8 52.1,59.4 128,93.1   "/><polygon fill="#0B2C48" points="128,200.6 206.7,166.8 203.1,58.3 128,93.1   "/><polygon fill="#BBC2C6" points="128,93.1 128,196.1 54.6,163.1 57.8,59.4   "/><path d="M128,196.1c0,0-45-30.2-63.1-37.3L67,55.4c0,0,41.4,17.4,61,37.7V196.1z" fill="#FFFFFF"/><polygon fill="#BBC2C6" points="128,93.1 128,196.1 201.4,163.1 198.2,59.4   "/><path d="M128,196.1c0,0,45-30.2,63.1-37.3L189,55.4c0,0-41.4,17.4-61,37.7V196.1z" fill="#E7E8E9"/><polyline fill="#6DB8E0" points="151.1,75.2 153.3,118.7 159.6,107.7 168.9,113.3 164.7,67.3   "/></g></g></svg>