<?xml version="1.0" ?><svg height="60" id="Sport" viewBox="0 0 60 60" width="60" xmlns="http://www.w3.org/2000/svg"><title/><path d="M29.079,47.17182l-9.0623,9.0624c-2.0967,2.0966-4.9884,1.4176-7.5926,0-3.3999-1.8508-7.7077-6.3029-10.0418-10.0419-1.5702-2.5152-2.0967-5.4959,0-7.5925l9.7236-9.7236Z" style="fill:#ff9797"/><path d="M10.3974,30.567c-2.0966,2.0966-1.5702,5.0773,0,7.5925a35.414,35.414,0,0,0,5.6229,6.7028,1.80223,1.80223,0,0,1,.056,2.5966l-1.525,1.525a1.79932,1.79932,0,0,1-2.4926.0577,35.4783,35.4783,0,0,1-5.7357-6.8077c-1.5701-2.5152-2.0966-5.4959,0-7.5926Z" style="fill:#eef6ff"/><g style="opacity:0.2"><path d="M26.079,44.17177l-9.06232,9.06244c-2.09668,2.09662-4.9884,1.4176-7.59259,0A21.379,21.379,0,0,1,5.64113,50.47a28.11265,28.11265,0,0,0,6.783,5.76416c2.60419,1.4176,5.49591,2.09662,7.59259,0L29.079,47.17177Z" style="fill:#750000"/><path d="M12.10592,28.87618l-1.61377,1.61377a16.977,16.977,0,0,0,2.48938,6.47986A39.02231,39.02231,0,0,0,23.03518,47.33742a8.9263,8.9263,0,0,0,4.34473,1.53345l1.6991-1.6991Z" style="fill:#750000"/></g><path d="M26.175,17.33192C36.5842.55472,43.5645,2.39172,52.6266,11.45382c7.2252,7.2252,10.1643,14.8178,1.0882,23.8938-10.0279,10.0279-22.118,15.0206-28.30459,10.6148a39.02253,39.02253,0,0,1-10.0537-10.3676c-4.8938-7.3597-3.6372-20.6346,5.6751-29.2844,4.805-4.4631,9.1407-4.0757,10.48761-2.939,2.71119,2.288.89,5.6715-1.58371,8.5105" style="fill:#ff9797"/><g style="opacity:0.5"><polygon points="32.561 14.257 32.56 14.258 32.565 14.252 32.561 14.257" style="fill:#fff"/><path d="M17.98153,37.9698c-4.8938-7.35968-3.63721-20.63458,5.675-29.28442,3.51831-3.26794,6.7796-3.93085,8.8056-3.60767a3.51485,3.51485,0,0,0-1.318-2.3313c-1.34686-1.13672-5.68262-1.52411-10.48761,2.939-9.31226,8.64984-10.56885,21.92474-5.675,29.28442a38.49659,38.49659,0,0,0,6.45935,7.48438A38.24655,38.24655,0,0,1,17.98153,37.9698Z" style="fill:#fff"/></g><g style="opacity:0.2"><polygon points="25.644 7.34 25.643 7.342 25.648 7.335 25.644 7.34" style="fill:#750000"/><path d="M52.25161,10.82881q-1.092-1.092-2.14551-2.03253c5.87,6.66583,7.608,13.71875-.683,22.00964-10.02789,10.02789-22.118,15.02063-28.30457,10.61481-1.13483-.80817-2.16168-1.62781-3.093-2.43732a39.90167,39.90167,0,0,0,7.00958,6.354c6.18665,4.40576,18.27673-.58691,28.30463-10.61481C62.41591,25.64662,59.47683,18.054,52.25161,10.82881Z" style="fill:#750000"/></g><path d="M1.68917,44.88906a10.66705,10.66705,0,0,0,.69312,1.30322,31.84478,31.84478,0,0,0,3.0275,4.01378c.43482.49612,12.09793-11.92014,12.09793-11.92014l-3.781-5.43443Z" style="fill:#fff;opacity:0.5"/><path d="M16.7793,58.55908a10.2262,10.2262,0,0,1-4.833-1.44629c-3.39014-1.8457-7.8667-6.313-10.41211-10.39062-2.09131-3.34961-2.03857-6.65039.14111-8.82959l9.72363-9.72363A.99989.99989,0,0,1,12.813,29.583L3.08936,39.30664c-2.12646,2.12646-.60986,5.15332.14111,6.356,2.34814,3.76123,6.59619,8.019,9.67188,9.69336,4.25928,2.31885,5.87549.70215,6.40723.17139l9.0625-9.0625a.99989.99989,0,0,1,1.41406,1.41406l-9.0625,9.0625A5.41118,5.41118,0,0,1,16.7793,58.55908Z" style="fill:#6d6daa"/><path d="M13.271,50.519a2.7769,2.7769,0,0,1-1.89209-.74365A36.26329,36.26329,0,0,1,5.4751,42.76318c-2.09131-3.34912-2.03857-6.6499.14111-8.8291l4.07422-4.07422a.99989.99989,0,1,1,1.41406,1.41406c-2.12646,2.12646-.60986,5.15332.14111,6.356a34.213,34.213,0,0,0,5.45752,6.502,2.80113,2.80113,0,0,1,.89795,2.01416,2.76846,2.76846,0,0,1-.81787,2.02l-1.5249,1.5249A2.80366,2.80366,0,0,1,13.271,50.519ZM8.03027,34.34863l-1,.99951c-2.12646,2.12646-.60986,5.15332.14111,6.356a34.67312,34.67312,0,0,0,5.56689,6.60352.79576.79576,0,0,0,1.106-.03076l1.5249-1.5249a.78291.78291,0,0,0,.23193-.57227.81649.81649,0,0,0-.26367-.58691,36.272,36.272,0,0,1-5.78809-6.90332A9.37894,9.37894,0,0,1,8.03027,34.34863Z" style="fill:#6d6daa"/><path d="M30.57422,47.91162a10.35321,10.35321,0,0,1-6.11914-1.75977A39.76041,39.76041,0,0,1,14.14893,35.52344c-4.97363-7.47949-4.15967-21.29395,5.82715-30.5708,5.03467-4.67725,9.938-4.55225,11.813-2.97021a4.48513,4.48513,0,0,1,1.689,3.15576,5.00745,5.00745,0,0,1,.00732.62988,11.90229,11.90229,0,0,1,5.97412-2.68848c5.09668-.59473,9.68652,3.22852,13.499,7.042,5.66553,5.666,11.94287,14.4541,1.08838,25.30811C46.10254,43.374,37.23877,47.91113,30.57422,47.91162ZM28.48633,2.99609c-1.7041,0-4.25928.7373-7.14893,3.42188C12.11963,14.98,11.29346,27.61719,15.814,34.416a37.839,37.839,0,0,0,9.80127,10.10693c5.49756,3.915,17.1123-.603,27.01758-10.50732,7.49658-7.49658,7.1709-14.21973-1.08838-22.48C46.61865,6.60986,43.07324,4.66992,39.689,5.06641c-2.66455.30762-5.377,2.09912-8.312,5.53711q-.47681.63794-1.0625,1.31006c-.01074.0127-.02246.02539-.03369.03711a61.1375,61.1375,0,0,0-3.63135,5.28369,1,1,0,0,1-1.69922-1.05469,61.79519,61.79519,0,0,1,3.78174-5.48291.92994.92994,0,0,1,.07471-.09668l.01465-.01709q.43359-.55.86279-1.05859c1.26611-1.67236,1.88525-3.12109,1.7998-4.2334A2.52607,2.52607,0,0,0,30.499,3.51074,3.31994,3.31994,0,0,0,28.48633,2.99609Z" style="fill:#6d6daa"/><path d="M40.46658,19.27065C36.40364,23.58791,29.2502,29.375,26.5002,26.625c-2.08754-2.08754,2.15388-10.50208,6.26694-14.77162s8.51067-6.23607,11.29707-4.022C49.6252,12.25,46.2502,13.125,40.46658,19.27065Z" style="fill:#fff;opacity:0.5"/></svg>