<?xml version="1.0" ?><!DOCTYPE svg  PUBLIC '-//W3C//DTD SVG 1.1//EN'  'http://www.w3.org/Graphics/SVG/1.1/DTD/svg11.dtd'><svg enable-background="new -10.254 -20.189 128 128" height="128px" version="1.1" viewBox="-10.254 -20.189 128 128" width="128px" xml:space="preserve" xmlns="http://www.w3.org/2000/svg" xmlns:xlink="http://www.w3.org/1999/xlink"><defs/><path d="M107.41,83.627c-0.215-0.324-1.134-1.511-1.997-1.511c-0.862,0-2.537,0-2.537,0s0,0-0.864-0.594  c-0.862-0.595-6.747-7.232-7.934-8.853c-1.188-1.618-3.994-6.961-3.994-7.61c0-0.647,0-2.428,0-3.509  c0-1.077-0.324-6.151-0.378-8.475c-0.055-2.319,0.595-3.398,1.674-5.289c1.079-1.888,3.994-3.778,5.343-4.047  c1.35-0.271,3.022-0.163,4.21-0.379c1.188-0.215,1.296-1.563,1.674-1.996s1.025-1.728,1.241-1.944  c0.217-0.216,0.162-1.295-0.324-1.834c-0.484-0.54-2.914-3.617-2.914-3.617s-0.27-1.079-0.702-1.673  c-0.432-0.593-1.241-1.295-2.591-2.051c-1.349-0.755-2.428-1.079-2.428-1.079s0.107-0.918,0.161-1.782  c0.054-0.863,0.161-3.347,0-3.347s-0.972,0.27-0.972,0.27L94.024,23.5c0,0-0.864,0.486-1.404,1.025  c-0.539,0.54-3.993,4.21-4.371,4.426c-0.378,0.216-2.43,1.133-3.67,1.673c-1.242,0.539-2.429,1.781-3.67,3.022  c-1.242,1.243-4.643,3.239-5.776,3.455c-1.134,0.216-3.507,0-4.749-0.216s-4.156-0.809-5.183-0.809  c-1.025,0-6.368-0.811-9.338-1.295c-2.968-0.487-12.035-2.16-18.027-2.214c-5.991-0.055-13.494,1.241-14.681,1.187  c-1.188-0.054-3.724-1.726-5.884-3.994c-2.158-2.267-3.4-7.231-4.264-11.496C12.144,14,13.709,10.33,14.681,8.386  c0.973-1.944,4.21-2.807,5.938-2.699c1.728,0.108,3.239,1.89,3.832,2.321c0.594,0.432,1.835,0.162,2.159-2.321  c0.323-2.483-3.185-4.75-4.48-5.343c-1.295-0.594-4.642-0.541-8.69,1.133c-4.048,1.674-6.207,7.125-7.233,12.36  c-1.025,5.236,2.43,13.71,3.887,16.409c1.458,2.699,5.343,8.798,5.343,9.067c0,0.27-0.27,1.781-0.27,2.621  c0,0.839-0.216,2.508-0.486,3.208c-0.27,0.703-1.188,5.235-1.188,7.233c0,1.997-1.511,4.696-3.023,6.476  c-1.511,1.783-5.073,4.374-5.073,4.966c0,0.595-4.48,10.312-4.48,11.93c0,1.62-0.917,4.641-0.917,4.641s1.565,2.215,2.428,2.699  c0.865,0.485,1.89-0.376,2.483-1.348c0.594-0.973-0.108-2.861,0-3.401c0.108-0.54,1.889-5.561,2.592-6.746  c0.701-1.188,3.616-3.131,4.479-3.185c0.865-0.054,5.722-1.459,7.449-1.891c1.728-0.431,2.267-0.754,2.267-0.754  s0.648,0.969,0.648,1.564c0,0.594-0.756,3.509-1.027,5.775c-0.269,2.266,0.216,2.969,1.295,4.91  c1.081,1.945,3.888,5.182,5.506,6.965c1.619,1.78,2.752,2.645,2.752,2.645h5.291c0,0,0.701-0.324,1.134-1.08  c0.431-0.757-0.325-2.051-1.458-2.591c-1.133-0.54-2.699-0.379-2.699-0.379s-3.239-3.561-3.94-4.263  c-0.702-0.701-0.648-1.134-0.648-1.837c0-0.699,0.162-1.51,0.324-1.726c0.162-0.216,2.698-4.155,3.562-4.911  c0.864-0.757,2.59-2.861,2.807-3.401s1.079-2.861,1.566-3.238c0.486-0.379,8.528-0.271,10.04-0.487  c1.511-0.214,3.514-1.077,3.514-1.077s2.154,0.377,4.204,1.077c2.051,0.703,3.724,1.027,3.724,1.027s0.054,1.62-0.27,3.778  s-0.702,5.398-0.918,6.313c-0.217,0.919-1.242,2.807-1.242,4.05c0,1.239-0.161,5.343,0,5.992c0.162,0.647,1.242,1.239,1.242,1.239  s3.454,0,4.479,0s1.242-1.889,0.756-2.645c-0.485-0.754-2.321-1.456-2.321-1.456s0.163-1.838,0.379-2.429  c0.216-0.595,4.749-9.285,5.775-11.065c1.025-1.783,2.591-2.698,3.4-2.698s3.831,0.054,4.102-0.162  c0.27-0.216,1.781-0.648,1.781-0.648s2.429,1.672,3.292,2.375c0.864,0.702,1.35,1.513,1.457,1.995  c0.107,0.487,0.973,1.297,2.645,2.7c1.675,1.404,4.48,3.725,5.668,4.589c1.188,0.861,4.265,3.347,6.153,5.074  c1.889,1.726,2.808,1.888,3.4,2.158c0.594,0.27,2.698,2.212,2.698,2.212s2.753,0,3.726,0c0.971,0,1.727-0.054,2.32-0.699  C107.41,84.762,107.625,83.952,107.41,83.627z"/></svg>