<?xml version="1.0" ?><!DOCTYPE svg  PUBLIC '-//W3C//DTD SVG 1.1//EN'  'http://www.w3.org/Graphics/SVG/1.1/DTD/svg11.dtd'><svg enable-background="new 0 0 48 48" height="48px" id="Layer_1" version="1.1" viewBox="0 0 48 48" width="48px" xml:space="preserve" xmlns="http://www.w3.org/2000/svg" xmlns:xlink="http://www.w3.org/1999/xlink"><g><path d="M13.564,29.219c-1.193,0-2.312-0.463-3.15-1.302L0.293,17.796C0.105,17.608,0,17.354,0,17.089s0.105-0.52,0.293-0.707   L12.578,4.099c0.391-0.391,1.023-0.391,1.414,0l10.121,10.12c1.736,1.736,1.736,4.563,0,6.3l-7.4,7.398   C15.875,28.756,14.757,29.219,13.564,29.219z M2.414,17.089l9.414,9.414c0.923,0.924,2.549,0.924,3.471,0l7.4-7.398   c0.956-0.958,0.957-2.515,0-3.472L13.285,6.22L2.414,17.089z"/><path d="M32.743,37.549c-0.256,0-0.512-0.098-0.707-0.293L18.999,24.218c-0.391-0.391-0.391-1.023,0-1.414s1.023-0.391,1.414,0   L33.45,35.842c0.391,0.391,0.391,1.023,0,1.414C33.255,37.451,32.999,37.549,32.743,37.549z"/><path d="M39.389,44.693c-0.384,0-0.768-0.146-1.061-0.439l-5.632-5.631c-0.586-0.586-0.586-1.535,0-2.121s1.535-0.586,2.121,0   l5.632,5.631c0.586,0.586,0.586,1.535,0,2.121C40.156,44.547,39.772,44.693,39.389,44.693z"/><path d="M19.352,37.549c-0.256,0-0.512-0.098-0.707-0.293c-0.391-0.391-0.391-1.023,0-1.414l13.039-13.038   c0.391-0.391,1.023-0.391,1.414,0s0.391,1.023,0,1.414L20.059,37.256C19.864,37.451,19.608,37.549,19.352,37.549z"/><path d="M12.706,44.693c-0.384,0-0.768-0.146-1.061-0.439c-0.586-0.586-0.586-1.535,0-2.121l5.632-5.631   c0.586-0.586,1.536-0.586,2.121,0c0.586,0.586,0.586,1.535,0,2.121l-5.632,5.631C13.474,44.547,13.09,44.693,12.706,44.693z"/><path d="M37.52,26.558c-2.257,0-4.33-0.831-5.839-2.34c-3.405-3.405-3.041-9.311,0.813-13.164c2.004-2.004,4.674-3.153,7.325-3.153   c2.256,0,4.33,0.831,5.839,2.34c1.669,1.668,2.492,3.971,2.318,6.483c-0.17,2.46-1.282,4.833-3.131,6.681   C42.841,25.409,40.171,26.558,37.52,26.558z M39.818,9.901c-2.125,0-4.279,0.936-5.911,2.567c-3.073,3.074-3.438,7.71-0.813,10.336   c1.132,1.131,2.702,1.754,4.425,1.754c2.125,0,4.28-0.935,5.911-2.566c1.507-1.507,2.413-3.427,2.55-5.405   c0.133-1.926-0.484-3.677-1.737-4.931C43.111,10.524,41.54,9.901,39.818,9.901z"/><path d="M37.573,22.466c-0.256,0-0.512-0.098-0.707-0.293c-0.391-0.39-0.391-1.023,0-1.414l5.334-5.335   c0.391-0.391,1.023-0.391,1.414,0c0.391,0.39,0.391,1.023,0,1.414l-5.334,5.335C38.085,22.368,37.829,22.466,37.573,22.466z"/><path d="M34.436,19.327c-0.256,0-0.512-0.098-0.707-0.293c-0.391-0.39-0.391-1.023,0-1.414l5.334-5.335   c0.391-0.391,1.023-0.391,1.414,0c0.391,0.39,0.391,1.023,0,1.414l-5.334,5.335C34.947,19.229,34.691,19.327,34.436,19.327z"/></g></svg>