<?xml version="1.0" ?><!DOCTYPE svg  PUBLIC '-//W3C//DTD SVG 1.1//EN'  'http://www.w3.org/Graphics/SVG/1.1/DTD/svg11.dtd'><svg enable-background="new 0 0 512 512" height="512px" version="1.1" viewBox="0 0 512 512" width="512px" xml:space="preserve" xmlns="http://www.w3.org/2000/svg" xmlns:xlink="http://www.w3.org/1999/xlink"><g id="Layer_1"/><g id="Layer_2"><g><g><path d="M333.566,310.035H178.435c-6.08,0-11.026-4.947-11.026-11.025v-86.02c0-6.079,4.946-11.025,11.026-11.025     h155.132c6.079,0,11.025,4.946,11.025,11.025v86.02C344.592,305.088,339.646,310.035,333.566,310.035z M178.435,210.652     c-1.269,0-2.339,1.07-2.339,2.338v86.02c0,1.268,1.07,2.338,2.339,2.338h155.132c1.268,0,2.338-1.07,2.338-2.338v-86.02     c0-1.268-1.07-2.338-2.338-2.338H178.435z" fill="#55C5CD"/></g><g><path d="M240.662,279.139c-2.08,1.041-6.24,2.08-11.57,2.08c-12.351,0-21.646-7.801-21.646-22.166     c0-13.715,9.295-23.011,22.881-23.011c5.46,0,8.906,1.17,10.4,1.95l-1.365,4.615c-2.145-1.04-5.2-1.82-8.84-1.82     c-10.271,0-17.096,6.565-17.096,18.07c0,10.727,6.175,17.617,16.835,17.617c3.445,0,6.956-0.717,9.23-1.82L240.662,279.139z"/><path d="M246.965,273.678c2.535,1.561,6.24,2.861,10.141,2.861c5.785,0,9.165-3.055,9.165-7.477c0-4.094-2.34-6.434-8.255-8.709     c-7.15-2.535-11.571-6.241-11.571-12.416c0-6.825,5.655-11.896,14.17-11.896c4.485,0,7.735,1.04,9.686,2.145l-1.561,4.615     c-1.43-0.78-4.354-2.08-8.32-2.08c-5.98,0-8.255,3.575-8.255,6.565c0,4.095,2.665,6.11,8.71,8.45     c7.41,2.86,11.181,6.436,11.181,12.872c0,6.76-5.005,12.609-15.34,12.609c-4.225,0-8.84-1.234-11.181-2.795L246.965,273.678z"/><path d="M279.009,273.678c2.535,1.561,6.24,2.861,10.141,2.861c5.785,0,9.166-3.055,9.166-7.477c0-4.094-2.341-6.434-8.256-8.709     c-7.15-2.535-11.57-6.241-11.57-12.416c0-6.825,5.655-11.896,14.171-11.896c4.484,0,7.735,1.04,9.685,2.145l-1.56,4.615     c-1.43-0.78-4.355-2.08-8.32-2.08c-5.98,0-8.255,3.575-8.255,6.565c0,4.095,2.665,6.11,8.71,8.45     c7.41,2.86,11.181,6.436,11.181,12.872c0,6.76-5.006,12.609-15.341,12.609c-4.226,0-8.841-1.234-11.181-2.795L279.009,273.678z"/></g></g><path d="M343.376,134.322c0,1.48,1.152,2.732,2.515,2.732h38.717l-41.231-47.356V134.322z" fill="none"/><path d="M391.172,149.626c0.074-1.265-0.32-2.55-1.184-3.544l-51.935-59.085c-1.425-1.629-1.877-1.606-4.748-1.606   H131.908c-6.114,0-11.089,5.404-11.089,12.052v317.114c0,6.646,4.975,12.053,11.089,12.053h248.184   c6.113,0,11.088-5.406,11.088-12.053V149.669L391.172,149.626z M337.732,100.444l38.561,44.295h-36.209   c-1.277,0-2.352-1.169-2.352-2.557V100.444z M382.443,414.557c0,1.389-1.074,2.557-2.352,2.557H131.908   c-1.271,0-2.353-1.168-2.353-2.557V97.442c0-1.388,1.081-2.557,2.353-2.557h197.08v47.297c0,6.646,4.982,12.052,11.096,12.052   h42.359V414.557z" fill="#262626"/><g><path d="M256,498.779c-64.849,0-125.817-25.253-171.672-71.108C38.473,381.816,13.22,320.849,13.22,256    S38.473,130.184,84.328,84.329C130.184,38.474,191.151,13.221,256,13.221c64.849,0,125.816,25.253,171.672,71.108    C473.526,130.184,498.78,191.151,498.78,256s-25.254,125.816-71.108,171.671C381.816,473.526,320.85,498.779,256,498.779z     M256,21.971C126.955,21.971,21.97,126.956,21.97,256c0,129.044,104.985,234.029,234.03,234.029S490.03,385.044,490.03,256    C490.03,126.956,385.045,21.971,256,21.971z"/></g></g></svg>