<svg width="200" height="200" xmlns="http://www.w3.org/2000/svg">

 <g>
  <title>background</title>
  <rect fill="none" id="canvas_background" height="402" width="582" y="-1" x="-1"/>
 </g>
 <g>
  <title>Layer 1</title>
  <path fill="#e5a9a9" id="svg_2" d="m53.567,174.996c-5.027,0 -9.116,-4.089 -9.116,-9.115l0,-117.325l23.936,-23.936l79.629,0c5.026,0 9.116,4.089 9.116,9.116l0,132.145c0,5.026 -4.09,9.115 -9.116,9.115l-94.449,0zm-2.916,-9.115c0,1.607 1.308,2.915 2.916,2.915l94.45,0c1.607,0 2.916,-1.308 2.916,-2.915l0,-132.145c0,-1.608 -1.309,-2.916 -2.916,-2.916l-75.246,0l0,16.62c0,3.033 -2.467,5.5 -5.5,5.5l-16.62,0l0,112.941zm4.384,-119.141l11.536,0l0,-11.536l-11.536,11.536z"/>
  <path fill="#353533" id="svg_4" d="m61.011,123.83c-1.048,0 -1.9,-0.853 -1.9,-1.899l0,-2.4c0,-1.047 0.853,-1.899 1.9,-1.899l78.581,0c1.048,0 1.9,0.853 1.9,1.899l0,2.4c0,1.047 -0.853,1.899 -1.9,1.899l-78.581,0z"/>
  <path fill="#353533" id="svg_5" d="m61.011,138.068c-1.048,0 -1.9,-0.853 -1.9,-1.9l0,-2.399c0,-1.048 0.853,-1.9 1.9,-1.9l78.581,0c1.048,0 1.9,0.853 1.9,1.9l0,2.399c0,1.048 -0.853,1.9 -1.9,1.9l-78.581,0z"/>
  <path fill="#353533" id="svg_6" d="m61.011,152.306c-1.048,0 -1.9,-0.853 -1.9,-1.899l0,-2.4c0,-1.048 0.853,-1.9 1.9,-1.9l78.581,0c1.048,0 1.9,0.853 1.9,1.9l0,2.4c0,1.047 -0.853,1.899 -1.9,1.899l-78.581,0z"/>
  <path fill="#353533" id="svg_7" d="m89.953181,99.962898c-10.286,0 -16.932,-6.799 -16.932,-17.322c0,-10.572 7.343,-17.955 17.857,-17.955c4.664,0 7.234,1.078 8.123,1.542l0.511,0.266l-1.42,4.805l-0.742,-0.359c-0.997,-0.484 -3.145,-1.295 -6.325,-1.295c-7.589,0 -12.119,4.804 -12.119,12.851c0,7.833 4.458,12.509 11.924,12.509c2.435,0 4.97,-0.496 6.616,-1.295l0.768,-0.373l1.237,4.738l-0.507,0.253c-1.582,0.792 -4.773,1.635 -8.991,1.635zm21.281,-0.487l-10.568,-32.379l-0.611,-1.873l6.059,0l5.273,16.671c1.113,3.495 1.846,5.917 2.448,8.101l0.465,1.681l0.497,-1.671c0.809,-2.721 1.737,-5.489 2.62,-8.075l5.719,-16.707l6.027,0l-12.249,34.252l-5.68,0z"/>
 </g>
</svg>