<?xml version="1.0" ?><!DOCTYPE svg  PUBLIC '-//W3C//DTD SVG 1.1//EN'  'http://www.w3.org/Graphics/SVG/1.1/DTD/svg11.dtd'><svg enable-background="new 0 0 256 256" height="256px" id="Layer_1" version="1.1" viewBox="0 0 256 256" width="256px" xml:space="preserve" xmlns="http://www.w3.org/2000/svg" xmlns:xlink="http://www.w3.org/1999/xlink"><g><path d="M248.39,128C248.39,61.617,194.383,7.61,128,7.61S7.61,61.617,7.61,128   c0,62.038,46.474,113.526,108.103,119.766c7.988,0.828,16.594,0.828,24.568,0C201.916,241.526,248.39,190.038,248.39,128z" fill="#CD928D"/><path d="M128,1.61C58.308,1.61,1.61,58.308,1.61,128c0,31.512,11.664,61.696,32.844,84.993   c21.034,23.137,49.678,37.605,80.646,40.741c4.191,0.435,8.531,0.655,12.899,0.655s8.708-0.221,12.892-0.655   c30.976-3.136,59.62-17.604,80.654-40.741c21.18-23.297,32.844-53.481,32.844-84.993C254.39,58.308,197.692,1.61,128,1.61z    M115.712,247.766C54.084,241.526,7.61,190.038,7.61,128C7.61,61.617,61.617,7.61,128,7.61S248.39,61.617,248.39,128   c0,62.038-46.474,113.526-108.11,119.766C132.307,248.594,123.701,248.594,115.712,247.766z" fill="#454B53"/></g><g><path d="M160.09,70H149c-1.657,0-3-1.343-3-3v-4.3c0-2.316-2.212-3.7-4.35-3.7h-2.66c-1.657,0-3-1.343-3-3   c0-2.28-1.758-4-4.09-4h-7.8c-2.332,0-4.09,1.72-4.09,4c0,1.657-1.343,3-3,3h-2.66c-2.138,0-4.35,1.384-4.35,3.7V67   c0,1.657-1.343,3-3,3H95.91C95.126,70,95,70.253,95,70.86v153.16c0,0.904,0.45,0.98,0.91,0.98h19.059   c1.592,0,2.905,1.228,2.995,2.816c0,0,0.037,0.658,0.037,0.813v19.354c3.845,0.289,6.812,0.406,10,0.406s6.155-0.117,10-0.406   V228.63c0-0.167,0.052-0.876,0.052-0.876c0.115-1.567,1.418-2.754,2.99-2.754h19.048c0.46,0,0.91-0.076,0.91-0.98V70.86   C161,70.253,160.874,70,160.09,70z M127.823,219.221c-11.624,0-21.081-9.537-21.081-21.261c0-11.722,9.457-21.259,21.081-21.259   c11.625,0,21.082,9.537,21.082,21.259C148.904,209.684,139.447,219.221,127.823,219.221z M127.823,168.166   c-11.624,0-21.081-9.537-21.081-21.26c0-11.722,9.457-21.259,21.081-21.259c11.625,0,21.082,9.537,21.082,21.259   C148.904,158.629,139.447,168.166,127.823,168.166z M127.823,118.176c-11.624,0-21.081-9.537-21.081-21.26   c0-11.722,9.457-21.259,21.081-21.259c11.625,0,21.082,9.537,21.082,21.259C148.904,108.639,139.447,118.176,127.823,118.176z" fill="#F7F7FB"/><path d="M160.09,64H152v-1.3c0-5.439-4.546-9.7-10.35-9.7h-0.104c-1.257-4.098-5.046-7-9.646-7h-7.8   c-4.599,0-8.389,2.902-9.646,7h-0.104c-5.804,0-10.35,4.261-10.35,9.7V64h-8.09C91.906,64,89,66.885,89,70.86v153.16   c0,4.045,2.906,6.98,6.91,6.98H112v19.75c0,1.558,1.191,2.855,2.743,2.989c5.449,0.468,9.166,0.65,13.257,0.65   s7.808-0.183,13.257-0.65c1.552-0.134,2.743-1.432,2.743-2.989L143.999,231h16.091c4.004,0,6.91-2.936,6.91-6.98V70.86   C167,66.885,164.094,64,160.09,64z M161,224.02c0,0.904-0.45,0.98-0.91,0.98h-19.048c-1.571,0-2.875,1.187-2.99,2.754   c0,0-0.052,0.709-0.052,0.876v19.354c-3.845,0.289-6.812,0.406-10,0.406s-6.155-0.117-10-0.406V228.63   c0-0.155-0.037-0.813-0.037-0.813c-0.089-1.589-1.403-2.816-2.995-2.816H95.91c-0.46,0-0.91-0.076-0.91-0.98V70.86   c0-0.606,0.126-0.86,0.91-0.86H107c1.657,0,3-1.343,3-3v-4.3c0-2.316,2.212-3.7,4.35-3.7h2.66c1.657,0,3-1.343,3-3   c0-2.28,1.758-4,4.09-4h7.8c2.332,0,4.09,1.72,4.09,4c0,1.657,1.343,3,3,3h2.66c2.138,0,4.35,1.384,4.35,3.7V67   c0,1.657,1.343,3,3,3h11.09c0.784,0,0.91,0.253,0.91,0.86V224.02z" fill="#454B53"/><path d="M127.823,81.657c-8.316,0-15.081,6.845-15.081,15.259c0,8.415,6.765,15.26,15.081,15.26   s15.082-6.846,15.082-15.26C142.904,88.502,136.139,81.657,127.823,81.657z" fill="#CD928D"/><path d="M127.823,75.657c-11.624,0-21.081,9.537-21.081,21.259c0,11.723,9.457,21.26,21.081,21.26   c11.625,0,21.082-9.537,21.082-21.26C148.904,85.194,139.447,75.657,127.823,75.657z M127.823,112.176   c-8.316,0-15.081-6.846-15.081-15.26c0-8.414,6.765-15.259,15.081-15.259s15.082,6.845,15.082,15.259   C142.904,105.331,136.139,112.176,127.823,112.176z" fill="#454B53"/><path d="M127.823,131.647c-8.316,0-15.081,6.845-15.081,15.259s6.765,15.26,15.081,15.26s15.082-6.846,15.082-15.26   S136.139,131.647,127.823,131.647z" fill="#F8E390"/><path d="M127.823,125.647c-11.624,0-21.081,9.537-21.081,21.259c0,11.723,9.457,21.26,21.081,21.26   c11.625,0,21.082-9.537,21.082-21.26C148.904,135.185,139.447,125.647,127.823,125.647z M127.823,162.166   c-8.316,0-15.081-6.846-15.081-15.26s6.765-15.259,15.081-15.259s15.082,6.845,15.082,15.259S136.139,162.166,127.823,162.166z" fill="#454B53"/><path d="M127.823,182.701c-8.316,0-15.081,6.845-15.081,15.259c0,8.415,6.765,15.261,15.081,15.261   s15.082-6.846,15.082-15.261C142.904,189.546,136.139,182.701,127.823,182.701z" fill="#88A0BA"/><path d="M127.823,176.701c-11.624,0-21.081,9.537-21.081,21.259c0,11.724,9.457,21.261,21.081,21.261   c11.625,0,21.082-9.537,21.082-21.261C148.904,186.238,139.447,176.701,127.823,176.701z M127.823,213.221   c-8.316,0-15.081-6.846-15.081-15.261c0-8.414,6.765-15.259,15.081-15.259s15.082,6.845,15.082,15.259   C142.904,206.375,136.139,213.221,127.823,213.221z" fill="#454B53"/></g><path clip-rule="evenodd" d="M204.822,122H199v-2.347c0-1.766-0.734-3.653-2.503-3.653h-1.201  c0-1-1.432-3-3.201-3h-3.521c-1.77,0-3.201,2-3.201,3h-1.201c-1.77,0-3.17,1.887-3.17,3.653V122h-5.155  c-1.061,0-1.845,0.275-1.845,1.336v69.151c0,1.061,0.784,1.513,1.845,1.513h8.813c0,0-0.658,0.514-0.658,0.568v9.987  c2,0.194,4.081,0.288,6,0.288s4-0.094,6-0.288v-9.987c0-0.055,0.009-0.568,0.009-0.568h8.813c1.061,0,1.178-0.452,1.178-1.513  v-69.151C206,122.275,205.883,122,204.822,122z" fill="#F7F7FB" fill-rule="evenodd"/><ellipse clip-rule="evenodd" cx="190.253" cy="135.101" fill="#CD928D" fill-rule="evenodd" rx="8.163" ry="8.244"/><ellipse clip-rule="evenodd" cx="190.253" cy="157.671" fill="#F8E390" fill-rule="evenodd" rx="8.163" ry="8.244"/><ellipse clip-rule="evenodd" cx="190.253" cy="180.722" fill="#88A0BA" fill-rule="evenodd" rx="8.163" ry="8.244"/><path clip-rule="evenodd" d="M81.699,122H76v-2.347c0-1.766-0.857-3.653-2.626-3.653h-1.201  c0-1-1.432-3-3.201-3H65.45c-1.77,0-3.201,2-3.201,3h-1.201c-1.77,0-3.047,1.887-3.047,3.653V122h-5.278  c-1.061,0-1.722,0.275-1.722,1.336v69.151c0,1.061,0.661,1.513,1.722,1.513h8.813c0,0-0.535,0.514-0.535,0.568v9.987  c2,0.194,4.081,0.288,6,0.288s4-0.094,6-0.288v-9.987c0-0.055-0.114-0.568-0.114-0.568h8.813c1.061,0,1.301-0.452,1.301-1.513  v-69.151C83,122.275,82.76,122,81.699,122z" fill="#F7F7FB" fill-rule="evenodd"/><ellipse clip-rule="evenodd" cx="67.13" cy="135.101" fill="#CD928D" fill-rule="evenodd" rx="8.163" ry="8.244"/><ellipse clip-rule="evenodd" cx="67.13" cy="157.671" fill="#F8E390" fill-rule="evenodd" rx="8.163" ry="8.244"/><ellipse clip-rule="evenodd" cx="67.13" cy="180.722" fill="#88A0BA" fill-rule="evenodd" rx="8.163" ry="8.244"/></svg>