<svg width="256" height="256" xmlns="http://www.w3.org/2000/svg">

 <g>
  <title>background</title>
  <rect fill="none" id="canvas_background" height="402" width="582" y="-1" x="-1"/>
 </g>
 <g>
  <title>Layer 1</title>
  <path id="svg_3" fill-rule="evenodd" fill="#e5a9a9" d="m115.291,75.237c0,8.611 3.512,12.918 10.535,12.918c8.855,0 11.297,-7.549 11.873,-16.514l0.814,-13.524c-13.127,-2.756 -23.222,2.331 -23.222,17.12l0,0zm62.709,-7.651c0,14.442 -6.667,31.772 -22.722,31.772c-5.651,0 -10.833,-2.806 -13.043,-7.901l-0.983,0c-4.41,5.268 -10.013,7.901 -16.827,7.901c-14.854,0 -23.349,-9.599 -23.349,-24.353c0,-17.553 12.246,-28.699 29.642,-28.699c5.244,0 12.35,0.868 18.067,2.274c2.344,0.576 3.913,2.679 3.801,5.089l-1.217,25.977c0,5.664 1.547,8.508 4.641,8.508c7.169,0 8.591,-13.949 8.591,-20.694c0,-19.815 -12.859,-32.901 -32.65,-32.901c-25.525,0 -40.363,16.748 -40.363,41.869c0,30.786 22.469,38.517 49.478,33.508c3.002,-0.558 5.984,-1.262 8.937,-2.113c3.213,-0.926 6.385,1.46 6.385,4.805l0,1.452c0,2.144 -1.278,3.968 -3.293,4.7c-7.863,2.855 -16.465,4.283 -25.804,4.283c-29.981,0 -49.291,-16.105 -49.291,-46.279c0,-31.368 21.818,-53.805 53.825,-53.805c27.063,0 46.175,17.129 46.175,44.607l0,0z" clip-rule="evenodd"/>
  <path id="svg_4" fill-rule="evenodd" fill="#353533" d="m19,67l49.683,0c-0.458,3 -0.683,6.413 -0.683,9.661c0,0.781 0.013,1.339 0.04,2.339l-49.031,0l-0.005,0.015c-0.002,0.001 -0.004,0.004 -0.004,0.002l0,0.002l0.001,0.002l0,0l-0.001,0l0,5.499c0,6.664 3.759,9.39 9.77,13.749c33.114,24.065 66.151,48.249 99.23,72.366l101.68,-74.162c4.612,-3.363 7.32,-6.248 7.32,-11.953l0,-5.52l-51.412,0c1.246,-4 1.99,-8 2.276,-12l49.136,0c6.611,0 12,5.409 12,12.02l0,142.001c0,6.611 -5.389,11.979 -12,11.979l-218,0c-6.598,0 -12,-5.393 -12,-11.979l0,-142.001c0,-6.603 5.405,-12.02 12,-12.02l0,0zm218,145.049l0,-106.078c-24.603,18.256 -49.619,36.154 -74.385,54.208l74.385,51.87l0,0zm-209.972,8.951l201.943,0l-76.57,-53.382l-20.791,15.161c-2.045,1.553 -4.943,1.661 -7.126,0.071l-20.886,-15.233l-76.57,53.383l0,0zm-8.028,-115.029l0,106.078l74.385,-51.869c-24.773,-18.057 -49.778,-35.947 -74.385,-54.209l0,0z" clip-rule="evenodd"/>
 </g>
</svg>