<svg width="512" height="512" xmlns="http://www.w3.org/2000/svg">

 <g>
  <title>background</title>
  <rect fill="none" id="canvas_background" height="402" width="582" y="-1" x="-1"/>
 </g>
 <g>
  <title>Layer 1</title>
  <path fill="#353533" id="svg_1" d="m254.5,16.5c-131.996,0 -239,107.004 -239,239s107.004,239 239,239s239,-107.004 239,-239s-107.004,-239 -239,-239zm158.392,397.392c-42.308,42.308 -98.559,65.608 -158.392,65.608c-59.833,0 -116.084,-23.3 -158.392,-65.608c-42.308,-42.308 -65.608,-98.559 -65.608,-158.392c0,-59.833 23.3,-116.084 65.608,-158.392c42.308,-42.308 98.559,-65.608 158.392,-65.608c59.833,0 116.084,23.3 158.392,65.608c42.308,42.308 65.608,98.559 65.608,158.392c0,59.833 -23.3,116.084 -65.608,158.392z"/>
  <path fill="#e5a9a9" id="svg_2" d="m254,118.205c-75.969,0 -137.563,61.594 -137.563,137.563c0,60.788 39.412,112.341 94.079,130.527c6.877,1.26 9.387,-2.989 9.387,-6.616c0,-3.275 -0.126,-14.122 -0.193,-25.608c-38.253,8.312 -46.339,-16.221 -46.339,-16.221c-6.263,-15.886 -15.273,-20.117 -15.273,-20.117c-12.502,-8.53 0.948,-8.363 0.948,-8.363c13.812,0.957 21.083,14.173 21.083,14.173c12.275,21.024 32.208,14.945 40.033,11.419c1.25,-8.866 4.81,-14.945 8.732,-18.371c-30.537,-3.476 -62.66,-15.281 -62.66,-67.992c0,-15.029 5.365,-27.287 14.147,-36.918c-1.402,-3.493 -6.138,-17.489 1.36,-36.422c0,0 11.536,-3.694 37.833,14.106c10.965,-3.065 22.728,-4.576 34.424,-4.626c11.687,0.051 23.459,1.578 34.441,4.643c26.247,-17.817 37.8,-14.106 37.8,-14.106c7.523,18.95 2.788,32.93 1.377,36.406c8.816,9.63 14.139,21.889 14.139,36.918c0,52.846 -32.174,64.483 -62.82,67.892c4.954,4.265 9.337,12.628 9.337,25.457c0,18.388 -0.185,33.215 -0.185,37.749c0,3.661 2.502,7.943 9.471,6.599c54.626,-18.22 94.004,-69.772 94.004,-130.527c0.001,-75.971 -61.593,-137.565 -137.562,-137.565z"/>
 </g>
</svg>