<svg width="128" height="128" xmlns="http://www.w3.org/2000/svg">
 <title/>

 <g>
  <title>background</title>
  <rect fill="none" id="canvas_background" height="402" width="582" y="-1" x="-1"/>
 </g>
 <g>
  <title>Layer 1</title>
  <path fill="#e59e9e" id="svg_1" d="m64,0.262292a64,64 0 1 0 64,64a64.07,64.07 0 0 0 -64,-64zm0,122a58,58 0 1 1 58,-58a58.07,58.07 0 0 1 -58,58z"/>
  <path fill="#e59e9e" id="svg_2" d="m90,61l-52,0a3,3 0 0 0 0,6l52,0a3,3 0 0 0 0,-6z"/>
  <path fill="#e59e9e" id="svg_3" d="m90,81.606459l-52,0a3,3 0 0 0 0,6l52,0a3,3 0 0 0 0,-6z"/>
  <path fill="#e59e9e" id="svg_4" d="m89.475417,40.918124l-52,0a3,3 0 0 0 0,6l52,0a3,3 0 0 0 0,-6z"/>
 </g>
</svg>