<?xml version="1.0" ?><svg enable-background="new 0 0 64 64" version="1.1" viewBox="0 0 64 64" xml:space="preserve" xmlns="http://www.w3.org/2000/svg" xmlns:xlink="http://www.w3.org/1999/xlink"><g id="Icons"><g><g><path d="M32,63.5C14.631,63.5,0.5,49.369,0.5,32S14.631,0.5,32,0.5S63.5,14.631,63.5,32S49.369,63.5,32,63.5z" fill="#FFFFFF"/></g><g><path d="M32,1c17.093,0,31,13.907,31,31S49.093,63,32,63S1,49.093,1,32S14.907,1,32,1 M32,0     C14.327,0,0,14.327,0,32s14.327,32,32,32s32-14.327,32-32S49.673,0,32,0L32,0z" fill="#E04F5F"/></g></g><g><g><g><g><rect fill="#25B6D2" height="1" width="4.596" x="45.083" y="23.333"/></g></g><g><g><rect fill="#231F20" height="1" width="4.597" x="33.592" y="23.333"/></g></g><g><g><rect fill="#E04F5F" height="1" width="8.642" x="15.511" y="23.333"/></g></g></g><g><g><g><rect fill="#E04F5F" height="1" width="4.597" x="48.341" y="38.808"/></g></g><g><g><rect fill="#25B6D2" height="1" width="4.597" x="36.85" y="38.808"/></g></g><g><g><rect fill="#E04F5F" height="1" width="13.79" x="16.164" y="38.808"/></g></g></g><g><g><g><rect fill="#231F20" height="1" width="11.491" x="41.446" y="28.492"/></g></g><g><g><rect fill="#E04F5F" height="1" width="4.598" x="32.252" y="28.492"/></g></g><g><g><rect fill="#231F20" height="1" width="10.219" x="17.437" y="28.492"/></g></g></g><g><g><g><rect fill="#25B6D2" height="1" width="9.192" x="43.745" y="33.65"/></g></g><g><g><rect fill="#231F20" height="1" width="4.597" x="34.55" y="33.65"/></g></g><g><g><rect fill="#231F20" height="1" width="11.024" x="14.333" y="33.65"/></g></g></g></g><g><path d="M13.275,14.903l2.995-1.542v0.445l-2.523,1.265v0.014l2.523,1.265v0.445l-2.995-1.543V14.903z"/><path d="M17.106,16.11c0.252,0.155,0.62,0.284,1.007,0.284c0.574,0,0.91-0.303,0.91-0.742c0-0.406-0.232-0.639-0.819-0.865    c-0.71-0.251-1.149-0.619-1.149-1.232c0-0.678,0.562-1.181,1.407-1.181c0.445,0,0.768,0.103,0.962,0.213l-0.155,0.458    c-0.142-0.077-0.433-0.207-0.826-0.207c-0.594,0-0.819,0.355-0.819,0.652c0,0.406,0.265,0.606,0.864,0.839    c0.736,0.284,1.11,0.64,1.11,1.278c0,0.671-0.497,1.252-1.523,1.252c-0.419,0-0.877-0.122-1.109-0.277L17.106,16.11z"/><path d="M22.61,16.678c-0.148,0.077-0.478,0.181-0.897,0.181c-0.942,0-1.556-0.639-1.556-1.594c0-0.962,0.658-1.659,1.679-1.659    c0.335,0,0.632,0.084,0.787,0.161l-0.129,0.439c-0.136-0.078-0.349-0.148-0.658-0.148c-0.717,0-1.104,0.529-1.104,1.181    c0,0.723,0.465,1.168,1.085,1.168c0.322,0,0.535-0.083,0.697-0.154L22.61,16.678z"/><path d="M23.271,14.645c0-0.368-0.006-0.685-0.025-0.975h0.497l0.02,0.613h0.025c0.143-0.42,0.484-0.685,0.865-0.685    c0.064,0,0.109,0.007,0.161,0.02v0.536c-0.058-0.013-0.116-0.02-0.193-0.02c-0.4,0-0.685,0.304-0.762,0.729    c-0.013,0.077-0.025,0.168-0.025,0.265v1.665h-0.562V14.645z"/><path d="M26.038,12.792c0.007,0.193-0.136,0.349-0.361,0.349c-0.2,0-0.342-0.155-0.342-0.349c0-0.2,0.148-0.354,0.354-0.354    C25.902,12.438,26.038,12.592,26.038,12.792z M25.405,16.794V13.67h0.568v3.124H25.405z"/><path d="M26.914,14.69c0-0.399-0.013-0.723-0.025-1.02h0.51l0.026,0.536h0.013c0.232-0.381,0.601-0.607,1.11-0.607    c0.755,0,1.323,0.64,1.323,1.588c0,1.123-0.685,1.679-1.42,1.679c-0.413,0-0.775-0.181-0.962-0.491h-0.013v1.698h-0.562V14.69z     M27.477,15.523c0,0.084,0.013,0.161,0.025,0.232c0.104,0.394,0.445,0.665,0.852,0.665c0.601,0,0.949-0.491,0.949-1.207    c0-0.626-0.329-1.162-0.93-1.162c-0.387,0-0.748,0.277-0.858,0.703c-0.02,0.071-0.038,0.155-0.038,0.232V15.523z"/><path d="M31.268,12.773v0.897h0.813v0.433h-0.813v1.685c0,0.387,0.109,0.606,0.426,0.606c0.148,0,0.259-0.02,0.329-0.038    l0.026,0.426c-0.11,0.045-0.284,0.077-0.504,0.077c-0.265,0-0.478-0.084-0.613-0.238c-0.161-0.168-0.219-0.446-0.219-0.813v-1.704    h-0.484V13.67h0.484v-0.749L31.268,12.773z"/><path d="M35.668,15.258l-2.995,1.536v-0.445l2.543-1.265v-0.014l-2.543-1.265v-0.445l2.995,1.536V15.258z"/></g><g><path d="M13.275,49.1l2.995-1.542v0.445l-2.523,1.265v0.014l2.523,1.265v0.445l-2.995-1.543V49.1z"/><path d="M16.687,51.249l1.801-4.679h0.439l-1.808,4.679H16.687z"/><path d="M19.318,50.307c0.252,0.155,0.619,0.284,1.007,0.284c0.574,0,0.91-0.303,0.91-0.742c0-0.406-0.232-0.639-0.819-0.865    c-0.71-0.251-1.149-0.619-1.149-1.232c0-0.678,0.562-1.181,1.407-1.181c0.445,0,0.768,0.103,0.962,0.213l-0.155,0.458    c-0.142-0.077-0.433-0.207-0.826-0.207c-0.594,0-0.819,0.355-0.819,0.652c0,0.406,0.265,0.606,0.864,0.839    c0.736,0.284,1.11,0.64,1.11,1.278c0,0.671-0.497,1.252-1.523,1.252c-0.419,0-0.877-0.122-1.109-0.277L19.318,50.307z"/><path d="M24.822,50.875c-0.148,0.077-0.478,0.181-0.897,0.181c-0.942,0-1.556-0.639-1.556-1.594c0-0.962,0.658-1.659,1.679-1.659    c0.335,0,0.632,0.084,0.787,0.161l-0.129,0.439c-0.136-0.078-0.349-0.148-0.658-0.148c-0.717,0-1.104,0.529-1.104,1.181    c0,0.723,0.465,1.168,1.085,1.168c0.322,0,0.535-0.083,0.697-0.154L24.822,50.875z"/><path d="M25.483,48.842c0-0.368-0.006-0.685-0.025-0.975h0.497l0.02,0.613H26c0.143-0.42,0.484-0.685,0.865-0.685    c0.064,0,0.109,0.007,0.161,0.02v0.536c-0.058-0.013-0.116-0.02-0.193-0.02c-0.4,0-0.685,0.304-0.762,0.729    c-0.013,0.077-0.026,0.168-0.026,0.265v1.665h-0.562V48.842z"/><path d="M28.25,46.99c0.007,0.193-0.136,0.349-0.361,0.349c-0.2,0-0.342-0.155-0.342-0.349c0-0.2,0.148-0.354,0.354-0.354    C28.114,46.635,28.25,46.789,28.25,46.99z M27.617,50.992v-3.124h0.568v3.124H27.617z"/><path d="M29.126,48.887c0-0.399-0.013-0.723-0.025-1.02h0.51l0.026,0.536h0.013c0.232-0.381,0.601-0.607,1.11-0.607    c0.755,0,1.323,0.64,1.323,1.588c0,1.123-0.685,1.679-1.42,1.679c-0.413,0-0.775-0.181-0.962-0.491h-0.014v1.698h-0.562V48.887z     M29.688,49.72c0,0.084,0.014,0.161,0.026,0.232c0.104,0.394,0.445,0.665,0.852,0.665c0.601,0,0.949-0.491,0.949-1.207    c0-0.626-0.329-1.162-0.93-1.162c-0.387,0-0.748,0.277-0.858,0.703c-0.02,0.071-0.039,0.155-0.039,0.232V49.72z"/><path d="M33.479,46.97v0.897h0.813V48.3h-0.813v1.685c0,0.387,0.109,0.606,0.426,0.606c0.148,0,0.259-0.02,0.329-0.038    l0.026,0.426c-0.11,0.045-0.284,0.077-0.504,0.077c-0.265,0-0.478-0.084-0.613-0.238c-0.161-0.168-0.219-0.446-0.219-0.813V48.3    H32.44v-0.433h0.484v-0.749L33.479,46.97z"/><path d="M37.88,49.455l-2.995,1.536v-0.445l2.543-1.265v-0.014l-2.543-1.265v-0.445l2.995,1.536V49.455z"/></g></g></svg>