<svg width="60" height="60" xmlns="http://www.w3.org/2000/svg">
 <title/>

 <g>
  <title>background</title>
  <rect fill="none" id="canvas_background" height="402" width="582" y="-1" x="-1"/>
 </g>
 <g>
  <title>Layer 1</title>
  <path id="svg_1" fill="#e5a9a9" fill-rule="evenodd" d="m30.00859,16.4483c9.12441,-17.8573 29.8692,-9.3441 28.9626,6.6198c-0.9443,16.6166 -24.2955,22.3507 -28.9626,34.9319c-4.665,-12.8959 -27.70459,-18 -28.9627,-34.9319c-1.1835,-15.9451 20.834,-24.5479 28.9627,-6.6198z"/>
  <path opacity="0.2" id="svg_3" fill="#750000" fill-rule="evenodd" d="m30.00861,53c-3.88361,-10.5 -27.26838,-16.35156 -28.90943,-32.913a16.18144,16.18144 0 0 0 -0.05328,2.981c1.2581,16.932 24.29767,22.03606 28.96271,34.932c4.66711,-12.58124 28.01831,-18.31531 28.96259,-34.93195a17.28469,17.28469 0 0 0 -0.06677,-2.77264c-1.52705,16.1001 -24.59195,22.20459 -28.89582,32.70459z"/>
  <path opacity="0.5" id="svg_5" fill="#fff" fill-rule="evenodd" d="m1.0769,23.3349c1.336,-14.13031 21.2815,-20.75928 28.93171,-3.8866c8.63183,-16.8933 27.65173,-10.18152 28.91375,4.10749c0.01385,-0.16376 0.03943,-0.32184 0.04883,-0.48773c0.90662,-15.96387 -19.83819,-24.47706 -28.96258,-6.61976c-8.12873,-17.9281 -30.14624,-9.3253 -28.96271,6.61975c0.00677,0.09089 0.02301,0.17664 0.031,0.26685z"/>
  <polyline id="svg_6" fill="none" stroke="#fff" stroke-linecap="round" stroke-linejoin="round" stroke-width="2px" fill-rule="evenodd" points="2.215 27.986 6.583 24.356 9.875 30.189 14.25 23.564 18.25 34.064 22.927 20.288 28.995 40.139 34.268 26.273 38.5 32.269 43.822 17.455 49.111 30.118 54.122 22.615 57.7 28.164"/>
 </g>
</svg>