<svg width="128" height="128" xmlns="http://www.w3.org/2000/svg">

 <g>
  <title>background</title>
  <rect fill="none" id="canvas_background" height="402" width="582" y="-1" x="-1"/>
 </g>
 <g>
  <title>Layer 1</title>
  <path fill="#e5a9a9" id="svg_1" d="m10.953471,23.053471c19,-19.3 37.7,-10.8 52.8,2.9c15,-13.7 33.7,-22.3 52.8,-2.9c14.9,15.1 15,39.4 0,54.5c-25.1,23 -38.2,34.9 -45.1,41.2c-4.3,3.9 -10.8,3.9 -15.1,0c-6.9,-6.2 -20.1,-18.2 -45.4,-41.2c-15,-15 -14.9,-39.3 0,-54.5z" class="st0"/>
  <path fill="#e5a9a9" id="svg_2" d="m64.739587,26.2l0,95.8c2.7,0 5.5,-1 7.7,-2.9c6.9,-6.3 20,-18.2 45.1,-41.2c15,-15.1 14.9,-39.4 0,-54.5c-19.1,-19.5 -37.8,-10.9 -52.8,2.8z" class="st1"/>
  <path fill="#efc75e" id="svg_3" d="m98,21c9,-1 14,-6 15,-15c1,9 6,14 15,15c-9,1 -14,6 -15,15c-1,-9 -6,-14 -15,-15z" class="st2"/>
  <path fill="#e67067" id="svg_4" d="m14,49.4c0,-12.9 10.5,-23.4 23.4,-23.4c1.5,0 2.6,1.2 2.6,2.6c0,1.5 -1.2,2.6 -2.6,2.6c-10,0 -18.1,8.1 -18.1,18.1c0,1.5 -1.2,2.6 -2.6,2.6c-1.5,0.1 -2.7,-1.1 -2.7,-2.5z" class="st3"/>
 </g>
</svg>