<svg width="117.72999999999998" height="235.877" xmlns="http://www.w3.org/2000/svg">
 <g>
  <title>background</title>
  <rect x="-1" y="-1" width="55.656755" height="109.503562" id="canvas_background" fill="none"/>
 </g>

 <g>
  <title>Layer 1</title>
  <path d="m16.084,137.321c1.083,0 2.184,-0.221 3.238,-0.688c4.039,-1.791 5.862,-6.518 4.071,-10.557c-0.423,-0.953 -0.817,-1.885 -1.198,-2.808c-3.485,-5.961 -6.144,-12.858 -7.942,-20.674c-2.513,-10.917 -2.964,-20.744 -1.349,-29.208c1.138,-5.788 3.177,-11.291 6.058,-16.426c-1.163,0.878 -2.354,1.846 -3.557,2.939c-3.83,3.495 -7.717,8.184 -10.623,14.267c-2.911,6.074 -4.79,13.518 -4.782,22.193c0.002,10.297 2.585,22.27 8.767,36.204c1.323,2.984 4.25,4.758 7.317,4.758z" id="svg_2" fill="#353533"/>
  <path d="m51.529,72.978c-2.584,4.703 -2.852,11.61 -0.8,20.531c0.122,0.531 0.25,1.051 0.381,1.562c1.942,7.533 4.928,12.897 8.886,15.988c0.197,0.154 0.394,0.309 0.596,0.452c0.571,0.403 1.146,0.764 1.726,1.091c3.835,2.165 7.876,2.67 12.566,1.591c5.222,-1.201 8.831,-3.804 11.342,-8.146c0.015,-0.025 0.031,-0.049 0.045,-0.074l-0.074,-0.429c-0.018,-0.102 -0.047,-0.198 -0.067,-0.3l-4.012,-33.737c-1.3,-1.97 -2.756,-3.53 -4.364,-4.669c-4.103,-2.909 -8.649,-3.657 -14.308,-2.355c-5.66,1.3 -9.447,4 -11.917,8.495z" id="svg_3" fill="#353533"/>
  <path d="m32.976,136.485l-7.436,85.963c-0.588,6.804 4.451,12.795 11.252,13.383c6.803,0.589 12.797,-4.447 13.385,-11.251l6.604,-76.35c-6.391,-1.243 -12.369,-3.652 -17.892,-7.237c-2.091,-1.359 -4.056,-2.87 -5.913,-4.508z" id="svg_4" fill="#353533"/>
  <path d="m68.597,149.193l13.003,75.787c1.154,6.73 7.549,11.249 14.277,10.094c6.728,-1.154 11.25,-7.545 10.096,-14.275l-13.141,-76.59c-3.209,1.279 -6.615,2.35 -10.239,3.184c-4.83,1.11 -9.495,1.699 -13.996,1.8z" id="svg_5" fill="#353533"/>
  <path d="m35.13916,48.969078c-0.26,0.21 -0.513,0.433 -0.769,0.651c-3.069,2.631 -5.766,5.841 -8.076,9.652c-0.274,0.453 -0.533,0.911 -0.79,1.369c-2.459,4.37 -4.175,8.998 -5.135,13.891c-0.201,1.052 -0.354,2.137 -0.48,3.24c-0.751,6.581 -0.17,14.062 1.762,22.458c2.308,10.032 6.111,18.221 11.39,24.595c0.037,0.045 0.074,0.09 0.111,0.135c2.466,2.953 5.254,5.511 8.362,7.673c0.368,0.256 0.73,0.518 1.107,0.763c4.332,2.813 9,4.746 13.995,5.828c3.08,0.667 6.285,1.007 9.617,1.017c4.306,0.012 8.818,-0.514 13.545,-1.601c3.846,-0.885 7.396,-2.056 10.671,-3.494c8.766,-3.847 15.499,-9.662 20.178,-17.466c6.428,-10.719 7.857,-23.849 4.28,-39.389c-1.54,-6.697 -3.72,-12.581 -6.528,-17.666c-1.767,1.431 -3.985,2.242 -6.291,2.242c-2.489,0 -4.878,-0.923 -6.724,-2.601c-1.977,-1.796 -3.137,-4.255 -3.263,-6.923c-0.126,-2.668 0.792,-5.227 2.589,-7.204l0.516,-0.567c-0.499,-0.355 -0.999,-0.709 -1.514,-1.044c-7.864,-5.104 -16.743,-7.392 -26.635,-6.87c-3.893,4.727 -9.529,7.946 -15.996,8.715c-1.854,0.22 -3.74,0.228 -5.609,0.019c-1.703,-0.188 -3.358,-0.552 -4.95,-1.072c-1.309,0.76 -2.569,1.562 -3.761,2.424c-0.544,0.391 -1.077,0.801 -1.602,1.225zm46.639,10.466c6.084,4.316 10.396,11.988 12.934,23.019c2.567,11.162 2.011,20.105 -1.675,26.829c-1.562,2.851 -3.493,5.253 -5.786,7.216c-0.189,0.162 -0.382,0.319 -0.576,0.475c-3.002,2.411 -6.593,4.105 -10.785,5.069c-4.504,1.036 -8.766,1.009 -12.79,-0.066c-1.65,-0.441 -3.262,-1.056 -4.832,-1.853c-1.186,-0.603 -2.351,-1.302 -3.491,-2.107c-6.235,-4.398 -10.611,-11.929 -13.137,-22.572c-0.038,-0.161 -0.08,-0.314 -0.117,-0.477c-2.548,-11.072 -2.003,-19.922 1.636,-26.543c3.638,-6.62 9.463,-10.854 17.473,-12.696c7.104,-1.634 13.45,-0.84 19.041,2.367c0.714,0.408 1.417,0.851 2.105,1.339z" id="svg_6" fill="#e5a9a9"/>
  <path d="m46.577,44.404078c7.088,0.786 13.768,-1.816 18.435,-6.508c2.427,-2.439 4.311,-5.442 5.42,-8.832c0.474,-1.448 0.809,-2.966 0.983,-4.54c1.369,-12.348 -7.533,-23.467 -19.879,-24.837c-12.348,-1.368 -23.469,7.531 -24.838,19.879c-0.869,7.836 2.401,15.173 8.06,19.842c2.609,2.152 5.725,3.735 9.179,4.538c0.86,0.2 1.74,0.358 2.64,0.458z" id="svg_7" fill="#383835"/>
  <path d="m97.076,47.937c-2.971,3.269 -2.729,8.33 0.539,11.301c1.532,1.393 3.46,2.081 5.38,2.081c1.893,0.001 3.779,-0.669 5.276,-1.986c0.224,-0.196 0.439,-0.406 0.645,-0.632l4.999,-5.499c0.11,-0.121 0.206,-0.249 0.307,-0.374c2.636,-3.273 2.305,-8.066 -0.844,-10.929c-2.735,-2.484 -6.716,-2.715 -9.688,-0.814c-0.582,0.372 -1.128,0.818 -1.615,1.353l-4.357,4.793l-0.642,0.706z" id="svg_8" fill="#353533"/>
 </g>
</svg>