<svg width="109.876" height="237.91999999999996" xmlns="http://www.w3.org/2000/svg">

 <g>
  <title>background</title>
  <rect fill="none" id="canvas_background" height="402" width="582" y="-1" x="-1"/>
 </g>
 <g>
  <title>Layer 1</title>
  <path fill="#353533" id="svg_2" d="m5.965,99.426c0.421,-0.25 0.859,-0.461 1.309,-0.646c0.016,-1.023 0.048,-2.056 0.113,-3.106l0.54,-8.677l8.665,0.719l4.22,0.351c0.957,-2.696 1.976,-5.027 3.014,-7.04c-4.027,-5.916 -6.071,-12.299 -6.111,-19.063c-7.053,7.529 -13.716,20.147 -16.872,40.917c0.596,-0.612 1.27,-1.163 2.039,-1.62l3.083,-1.835z"/>
  <path fill="#353533" id="svg_3" d="m90.176,79.664c5.012,4.095 8.705,9.106 10.986,14.912c2.241,5.708 2.815,12.191 1.753,19.275c1.387,0.49 2.661,1.277 3.733,2.347l2.252,2.251c0.363,0.363 0.681,0.754 0.976,1.156c-0.27,-15.516 -4.01,-28.377 -8.745,-38.444l-3.301,-0.45l-7.654,-1.047z"/>
  <path id="svg_4" d="m29.211,88.848c0.939,0.171 1.859,0.415 2.752,0.726c-1.176,-0.91 -2.238,-1.83 -3.225,-2.761l0,1.972c0.157,0.024 0.317,0.034 0.473,0.063z"/>
  <path fill="#353533" id="svg_5" d="m69.363,63.439c-0.213,-0.242 -0.653,-0.644 -1.498,-1.092c-1.062,-0.564 -2.762,-1.203 -5.461,-1.694c-3.016,-0.548 -5.549,-0.58 -7.443,-0.107c1.408,1.039 4.863,3.194 12.828,6.672c1.512,0.659 2.955,1.309 4.338,1.949c-0.522,-0.907 -0.963,-1.855 -1.332,-2.828c-0.244,-0.644 -0.462,-1.297 -0.633,-1.963c-0.197,-0.241 -0.459,-0.551 -0.799,-0.937z"/>
  <path fill="#353533" id="svg_6" d="m27.825,138.044l-8.233,86.338c-0.648,6.799 4.338,12.833 11.134,13.482c6.798,0.648 12.834,-4.335 13.481,-11.134l7.721,-80.945c-1.154,-0.165 -2.326,-0.355 -3.515,-0.57c-8,-1.454 -14.879,-3.855 -20.588,-7.171z"/>
  <path fill="#353533" id="svg_7" d="m46.348,107.825c1.637,2.012 4.432,3.387 8.318,4.093c0.166,0.03 0.321,0.05 0.483,0.077c0.439,0.074 0.871,0.139 1.288,0.192c3.319,0.415 5.954,0.176 7.519,-0.712c2.067,-1.173 2.245,-2.149 2.331,-2.62c0.053,-0.287 0.043,-0.444 0.033,-0.477c0.002,0 -0.615,-0.893 -3.144,-2.342c-0.751,-0.423 -2.339,-1.235 -5.507,-2.727c-1.503,-0.708 -3.36,-1.568 -5.662,-2.617c-0.938,-0.427 -1.941,-0.881 -3.029,-1.373c-1.847,-0.83 -3.586,-1.664 -5.24,-2.503c-1.382,-0.701 -2.706,-1.405 -3.956,-2.114c0.637,0.681 1.223,1.407 1.758,2.168c1.687,2.4 2.839,5.166 3.248,8.093c0.065,0.265 0.411,1.454 1.56,2.862z"/>
  <path fill="#353533" id="svg_8" d="m59.709,146.497l7.65,80.232c0.648,6.799 6.686,11.782 13.482,11.134c6.797,-0.648 11.783,-6.683 11.136,-13.482l-7.902,-82.862c-3.203,1.775 -6.716,3.092 -10.527,3.928c-4.183,0.92 -8.819,1.258 -13.839,1.05z"/>
  <path fill="#353533" id="svg_9" d="m68.598,27.69c3.001,0.545 5.825,1.224 8.492,2.019c0.231,-0.686 0.435,-1.388 0.602,-2.108c2.818,-12.1 -4.707,-24.192 -16.805,-27.011c-12.1,-2.816 -24.195,4.708 -27.012,16.808c-1.148,4.933 -0.578,9.863 1.319,14.165c3.09,-1.736 6.512,-3.041 10.253,-3.893c6.787,-1.544 14.576,-1.537 23.151,0.02z"/>
  <path fill="#e5a9a9" id="svg_10" d="m19.216239,102.909c2.324,3.908 1.661,8.773 -1.302,11.94c1.193,3.053 2.791,5.83 4.807,8.325c1.578,1.954 3.439,3.714 5.562,5.293c5.345,3.976 12.403,6.769 21.197,8.366c0.95,0.173 1.881,0.321 2.802,0.457c2.131,0.316 4.186,0.539 6.157,0.659c4.739,0.289 9.017,0.016 12.831,-0.821c4.106,-0.901 7.721,-2.494 10.867,-4.745c0.191,-0.137 0.383,-0.273 0.571,-0.416c1.3,-0.982 2.524,-2.07 3.654,-3.292c1.088,-1.176 2.054,-2.404 2.92,-3.675c-0.54,-3.102 0.377,-6.411 2.766,-8.801c0.367,-0.367 0.764,-0.691 1.174,-0.992c0.132,-0.097 0.26,-0.198 0.395,-0.287c0.076,-0.349 0.164,-0.693 0.229,-1.047c1.115,-6.142 0.762,-11.537 -1.065,-16.183c-1.461,-3.713 -3.671,-6.969 -6.606,-9.784c-0.737,-0.707 -1.508,-1.394 -2.338,-2.044c-0.456,-0.356 -0.946,-0.719 -1.463,-1.084c-4.171,-2.955 -10.315,-6.208 -18.445,-9.756c-9.137,-3.987 -14.754,-7.244 -16.851,-9.771c-1.646,-1.987 -2.263,-4.131 -1.844,-6.43c0.456,-2.519 1.859,-4.341 4.211,-5.466c2.276,-1.096 4.955,-1.647 8.031,-1.656l0.035,0c1.845,-0.003 3.831,0.188 5.961,0.575c2.305,0.419 4.317,0.993 6.072,1.705c2.451,0.994 4.383,2.267 5.762,3.834c2.363,2.689 2.438,3.296 2.438,3.296c0.35,2.934 2.171,5.734 4.631,7.563c1.441,1.072 3.102,1.813 4.815,2.047l8.422,1.151l2.919,0.399c1.311,-8.982 -0.631,-16.708 -5.822,-23.175c-4.354,-5.421 -11.178,-9.342 -20.452,-11.776c-1.79,-0.47 -3.661,-0.89 -5.634,-1.248c-7.469,-1.356 -14.049,-1.389 -19.738,-0.094c-2.65,0.603 -5.063,1.489 -7.257,2.635c-2.519,1.315 -4.746,2.975 -6.663,5.005c-3.067,3.246 -5.142,6.916 -6.244,11.002c-0.188,0.696 -0.355,1.401 -0.486,2.122c-1.019,5.608 -0.33,10.881 2.051,15.82c0.11,0.229 0.222,0.457 0.34,0.685c0.823,1.593 1.82,3.152 3.003,4.675c3.554,4.572 10.354,9.116 20.396,13.634c5.593,2.521 9.726,4.446 12.418,5.784c1.065,0.529 1.912,0.969 2.522,1.313c3.142,1.803 5.238,3.635 6.295,5.491c1.053,1.859 1.373,3.938 0.955,6.234c-0.649,3.58 -2.82,6.415 -6.51,8.507c-2.847,1.615 -6.484,2.253 -10.897,1.938c-0.936,-0.066 -1.914,-0.185 -2.921,-0.339c-0.399,-0.061 -0.787,-0.109 -1.196,-0.184c-5.967,-1.084 -10.433,-3.446 -13.399,-7.09c-2.967,-3.644 -3.377,-6.938 -3.377,-6.938c-0.247,-1.986 -1.176,-3.873 -2.52,-5.417c-1.363,-1.568 -3.156,-2.774 -5.109,-3.365c-0.624,-0.189 -1.263,-0.321 -1.91,-0.375l-8.455,-0.701l-2.484,-0.206c-0.064,1.025 -0.093,2.026 -0.104,3.016c0.616,0.33 1.19,0.727 1.727,1.178c0.837,0.707 1.581,1.541 2.156,2.509z"/>
  <path fill="#353533" id="svg_11" d="m93.92,117.614c-0.034,0.034 -0.063,0.071 -0.096,0.106c-0.334,0.346 -0.634,0.713 -0.892,1.099c-0.562,0.836 -0.942,1.754 -1.155,2.703c-0.576,2.584 0.133,5.396 2.144,7.407l2.024,2.024l0.226,0.226c0.048,0.047 0.1,0.087 0.147,0.133c0.109,0.104 0.22,0.205 0.334,0.302c0.09,0.077 0.182,0.15 0.273,0.222c0.113,0.088 0.229,0.173 0.347,0.254c0.1,0.069 0.2,0.136 0.302,0.201c0.118,0.074 0.239,0.145 0.361,0.213c0.105,0.059 0.211,0.116 0.318,0.169c0.127,0.063 0.256,0.122 0.386,0.179c0.107,0.047 0.215,0.092 0.323,0.134c0.136,0.052 0.273,0.099 0.412,0.144c0.108,0.035 0.217,0.068 0.326,0.099c0.142,0.039 0.284,0.073 0.429,0.105c0.112,0.024 0.226,0.046 0.339,0.065c0.143,0.024 0.286,0.045 0.432,0.063c0.118,0.014 0.237,0.024 0.355,0.032c0.19,0.014 0.381,0.027 0.571,0.027c1.278,0 2.557,-0.304 3.717,-0.913c0.054,-0.028 0.104,-0.063 0.157,-0.092c0.17,-0.095 0.34,-0.19 0.502,-0.297c0.093,-0.061 0.181,-0.13 0.271,-0.195c0.12,-0.086 0.242,-0.17 0.357,-0.263c0.087,-0.069 0.168,-0.146 0.253,-0.22c0.113,-0.099 0.228,-0.198 0.335,-0.303c0.021,-0.02 0.045,-0.038 0.065,-0.059c0.063,-0.063 0.116,-0.13 0.176,-0.194c0.1,-0.106 0.198,-0.212 0.292,-0.323c0.08,-0.096 0.154,-0.193 0.229,-0.292c0.081,-0.106 0.162,-0.213 0.238,-0.323c0.073,-0.107 0.142,-0.216 0.21,-0.325c0.066,-0.109 0.133,-0.218 0.195,-0.33c0.063,-0.114 0.122,-0.23 0.18,-0.346c0.056,-0.115 0.109,-0.23 0.16,-0.348c0.052,-0.118 0.1,-0.238 0.145,-0.358c0.046,-0.12 0.088,-0.241 0.128,-0.364c0.039,-0.123 0.075,-0.247 0.109,-0.372c0.032,-0.122 0.063,-0.245 0.09,-0.37c0.029,-0.132 0.054,-0.264 0.075,-0.396c0.021,-0.12 0.038,-0.24 0.053,-0.361c0.017,-0.142 0.029,-0.284 0.038,-0.427c0.012,-0.173 0.025,-0.346 0.025,-0.519c0,-0.003 0,-0.006 0,-0.01c-0.001,-2.046 -0.782,-4.092 -2.344,-5.654l-2.25,-2.25c-0.783,-0.783 -1.688,-1.369 -2.655,-1.76c-2.886,-1.17 -6.317,-0.584 -8.657,1.757z"/>
  <path fill="#353533" id="svg_12" d="m0.053,110.786c0.014,0.116 0.031,0.232 0.05,0.348c0.023,0.147 0.05,0.293 0.082,0.437c0.023,0.106 0.05,0.212 0.077,0.317c0.04,0.152 0.084,0.302 0.132,0.45c0.032,0.097 0.066,0.192 0.102,0.288c0.058,0.156 0.12,0.31 0.188,0.462c0.038,0.086 0.078,0.171 0.119,0.257c0.076,0.157 0.158,0.311 0.245,0.463c0.025,0.046 0.046,0.092 0.072,0.137c0.017,0.028 0.038,0.053 0.056,0.081c0.166,0.271 0.344,0.535 0.54,0.784c0.008,0.01 0.015,0.02 0.021,0.029c0.195,0.245 0.409,0.476 0.632,0.696c0.067,0.067 0.139,0.13 0.208,0.195c0.169,0.156 0.345,0.304 0.527,0.445c0.069,0.054 0.138,0.11 0.209,0.161c0.512,0.369 1.062,0.674 1.638,0.911c0.066,0.027 0.133,0.051 0.199,0.076c0.229,0.087 0.461,0.163 0.698,0.229c0.082,0.023 0.164,0.046 0.247,0.067c0.237,0.058 0.481,0.104 0.727,0.14c0.071,0.01 0.141,0.026 0.213,0.035c0.32,0.039 0.644,0.062 0.968,0.062c0.314,0 0.63,-0.024 0.944,-0.062c0.076,-0.009 0.151,-0.021 0.227,-0.032c0.273,-0.041 0.543,-0.094 0.808,-0.162c0.045,-0.012 0.091,-0.02 0.137,-0.032c0.051,-0.015 0.102,-0.038 0.152,-0.053c0.255,-0.076 0.509,-0.159 0.758,-0.262c0.059,-0.024 0.115,-0.051 0.173,-0.076c0.28,-0.123 0.554,-0.26 0.817,-0.414c0.021,-0.012 0.042,-0.019 0.063,-0.031l0.067,-0.04c0.008,-0.005 0.016,-0.009 0.024,-0.015l2.993,-1.779c0.991,-0.59 1.804,-1.363 2.431,-2.247c1.775,-2.502 2.026,-5.912 0.356,-8.718c-0.258,-0.434 -0.555,-0.831 -0.876,-1.196c-0.386,-0.438 -0.809,-0.83 -1.268,-1.166c-2.427,-1.779 -5.746,-2.086 -8.535,-0.577c-0.096,0.052 -0.194,0.096 -0.289,0.152l-3.081,1.833c-2.306,1.371 -3.664,3.721 -3.875,6.205c-0.012,0.137 -0.021,0.273 -0.024,0.411c-0.005,0.132 -0.006,0.262 -0.004,0.392c0.002,0.127 0.008,0.255 0.016,0.383c0.008,0.14 0.02,0.278 0.036,0.416z"/>
 </g>
</svg>