<?xml version="1.0" ?><svg height="130" id="svg2" version="1.1" width="130" xmlns="http://www.w3.org/2000/svg" xmlns:cc="http://creativecommons.org/ns#" xmlns:dc="http://purl.org/dc/elements/1.1/" xmlns:inkscape="http://www.inkscape.org/namespaces/inkscape" xmlns:rdf="http://www.w3.org/1999/02/22-rdf-syntax-ns#" xmlns:sodipodi="http://sodipodi.sourceforge.net/DTD/sodipodi-0.dtd" xmlns:svg="http://www.w3.org/2000/svg"><defs id="defs4"><clipPath clipPathUnits="userSpaceOnUse" id="clipPath3901"><path d="m 115,992.36218 c 0,30.37562 -24.624339,55.00002 -55,55.00002 -30.375661,0 -55,-24.6244 -55,-55.00002 0,-30.37566 24.624339,-55 55,-55 30.375661,0 55,24.62434 55,55 z" id="path3903" style="fill:#ed5565;fill-opacity:1;stroke:none"/></clipPath><clipPath clipPathUnits="userSpaceOnUse" id="clipPath4102"><path d="m 125,65.00001 c 0,33.13711 -26.862918,60.00001 -60.000001,60.00001 -33.137083,0 -59.999998,-26.8629 -59.999998,-60.00001 C 5.000001,31.86292 31.862916,5 64.999999,5 98.137082,5 125,31.86292 125,65.00001 z" id="path4104" style="fill:#fc6e51;fill-opacity:1;stroke:none"/></clipPath><clipPath clipPathUnits="userSpaceOnUse" id="clipPath4313"><path d="m 72.605136,997.35693 c 0,33.13707 -26.862918,59.99997 -60.000001,59.99997 -33.137083,0 -59.999998,-26.8629 -59.999998,-59.99997 0,-33.13709 26.862915,-60.00001 59.999998,-60.00001 33.137083,0 60.000001,26.86292 60.000001,60.00001 z" id="path4315" style="fill:#ffce54;fill-opacity:1;stroke:none"/></clipPath><clipPath clipPathUnits="userSpaceOnUse" id="clipPath4544"><path d="m 125,65.00001 c 0,33.13711 -26.862918,60.00001 -60.000001,60.00001 -33.137083,0 -59.999998,-26.8629 -59.999998,-60.00001 C 5.000001,31.86292 31.862916,5 64.999999,5 98.137082,5 125,31.86292 125,65.00001 z" id="path4546" style="fill:#a0d468;fill-opacity:1;stroke:none"/></clipPath><clipPath clipPathUnits="userSpaceOnUse" id="clipPath4752"><path d="m -8.16562,49.35068 c 0,33.13711 -26.862918,60.00001 -60.000001,60.00001 -33.137079,0 -59.999999,-26.8629 -59.999999,-60.00001 0,-33.13709 26.86292,-60.00001 59.999999,-60.00001 33.137083,0 60.000001,26.86292 60.000001,60.00001 z" id="path4754" style="fill:#48cfad;fill-opacity:1;stroke:none"/></clipPath><clipPath clipPathUnits="userSpaceOnUse" id="clipPath4994"><path d="m 125,65.00001 c 0,33.13711 -26.862918,60.00001 -60.000001,60.00001 -33.137083,0 -59.999998,-26.8629 -59.999998,-60.00001 C 5.000001,31.86292 31.862916,5 64.999999,5 98.137082,5 125,31.86292 125,65.00001 z" id="path4996" style="fill:#5d9cec;fill-opacity:1;stroke:none"/></clipPath><clipPath clipPathUnits="userSpaceOnUse" id="clipPath4174"><path d="m 125,987.36219 c 0,33.13711 -26.862918,60.00001 -60.000001,60.00001 -33.137083,0 -59.999998,-26.8629 -59.999998,-60.00001 0,-33.13709 26.862915,-60.00001 59.999998,-60.00001 C 98.137082,927.36218 125,954.2251 125,987.36219 z" id="path4176" style="fill:#5d9cec;fill-opacity:1;stroke:none"/></clipPath><clipPath clipPathUnits="userSpaceOnUse" id="clipPath4400"><path d="m 125,65.00001 c 0,33.13711 -26.862918,60.00001 -60.000001,60.00001 -33.137083,0 -59.999998,-26.8629 -59.999998,-60.00001 C 5.000001,31.86292 31.862916,5 64.999999,5 98.137082,5 125,31.86292 125,65.00001 z" id="path4402" style="fill:#fc6e51;fill-opacity:1;stroke:none"/></clipPath></defs><g id="layer1" transform="translate(0,-922.36218)"><path d="m 125,987.36219 c 0,33.13711 -26.862918,60.00001 -60.000001,60.00001 -33.137083,0 -59.999998,-26.8629 -59.999998,-60.00001 0,-33.13709 26.862915,-60.00001 59.999998,-60.00001 C 98.137082,927.36218 125,954.2251 125,987.36219 z" id="path2987" style="fill:#fc6e51;fill-opacity:1;stroke:none;stroke-opacity:1"/><path clip-path="url(#clipPath4400)" d="m 39,38 -13,19.5 39,45.5 70.71875,70.71875 39,-45.5 -13,-19.5 L 91,38 71.5,38" id="path4344" style="color:#000000;fill:#e9573f;fill-opacity:1;stroke:#e9573f;stroke-width:5;stroke-linecap:round;stroke-linejoin:round;stroke-miterlimit:4;stroke-opacity:1;stroke-dasharray:none;stroke-dashoffset:0;marker:none;visibility:visible" transform="translate(0,922.36218)"/><path d="m 39,960.36211 12.999999,19.50002" id="path2992" style="color:#000000;fill:none;stroke:#ffffff;stroke-width:5;stroke-linecap:round;stroke-linejoin:round;stroke-miterlimit:4;stroke-opacity:1;stroke-dasharray:none;stroke-dashoffset:0;marker:none;visibility:visible;display:inline;overflow:visible;enable-background:accumulate"/><path d="m 26.000002,979.86213 77.999988,0" id="path2996" style="color:#000000;fill:none;stroke:#ffffff;stroke-width:5;stroke-linecap:round;stroke-linejoin:round;stroke-miterlimit:4;stroke-opacity:1;stroke-dasharray:none;stroke-dashoffset:0;marker:none;visibility:visible;display:inline;overflow:visible;enable-background:accumulate"/><path d="M 91,960.36211 78,979.86213 65,960.36211 51.999999,979.86213 65,1025.3622 78,979.86213" id="path2998" style="color:#000000;fill:none;stroke:#ffffff;stroke-width:5;stroke-linecap:round;stroke-linejoin:round;stroke-miterlimit:4;stroke-opacity:1;stroke-dasharray:none;stroke-dashoffset:0;marker:none;visibility:visible;display:inline;overflow:visible;enable-background:accumulate"/><path d="M 39,960.36211 26.000002,979.86213 65,1025.3622 103.99999,979.86213 91,960.36211 l -19.5,0 z" id="path2987-1" style="color:#000000;fill:none;stroke:#ffffff;stroke-width:5;stroke-linecap:round;stroke-linejoin:round;stroke-miterlimit:4;stroke-opacity:1;stroke-dasharray:none;stroke-dashoffset:0;marker:none;visibility:visible;display:inline;overflow:visible;enable-background:accumulate"/></g></svg>