<svg width="100" height="100" xmlns="http://www.w3.org/2000/svg">

 <g>
  <title>background</title>
  <rect fill="none" id="canvas_background" height="109.503562" width="55.656755" y="-1" x="-1"/>
 </g>
 <g>
  <title>Layer 1</title>
  <path fill="#353533" id="svg_1" d="m23.16,21.17l2.71,-2.71l0,24.826c0,0.552 0.447,1 1,1s1,-0.448 1,-1l0,-24.825l2.771,2.772c0.195,0.195 0.451,0.293 0.707,0.293s0.512,-0.098 0.707,-0.293c0.391,-0.391 0.391,-1.023 0,-1.414l-4.479,-4.479c-0.391,-0.391 -1.023,-0.391 -1.414,0l-4.417,4.417c-0.391,0.391 -0.391,1.023 0,1.414s1.025,0.39 1.415,-0.001z"/>
  <path fill="#353533" id="svg_2" d="m31.423,37.897407c-0.391,0.391 -0.391,1.023 0,1.414l4.479,4.479c0.195,0.195 0.451,0.293 0.707,0.293s0.512,-0.098 0.707,-0.293l4.417,-4.417c0.391,-0.391 0.391,-1.023 0,-1.414s-1.023,-0.391 -1.414,0l-2.71,2.71l0,-24.825c0,-0.552 -0.447,-1 -1,-1s-1,0.448 -1,1l0,24.826l-2.772,-2.773c-0.391,-0.391 -1.024,-0.391 -1.414,0z"/>
  <path fill="#e5a9a9" id="svg_3" d="m60.188,53.619593l0,-2.25l0,-18.417l0,-6.125c0,-1.149 0.935,-2.083 2.083,-2.083c1.149,0 2.084,0.935 2.084,2.083l0,20.458l0,5.75l0,1.833c0,0.552 0.447,1 1,1s1,-0.448 1,-1l0,-1.833l0,-5.75c0,-1.149 0.935,-2.083 2.083,-2.083s2.083,0.935 2.083,2.083l0,3.25l0,5.75l0,0.25c0,0.552 0.447,1 1,1s1,-0.448 1,-1l0,-0.25l0,-5.75c0,-1.149 0.935,-2.083 2.084,-2.083c1.148,0 2.083,0.935 2.083,2.083l0,14.333c0,0.1 -0.051,10.049 -4.464,14.55c-0.184,0.187 -0.286,0.438 -0.286,0.7l0,2.584c0,0.552 0.447,1 1,1s1,-0.448 1,-1l0,-2.187c4.694,-5.178 4.75,-15.214 4.75,-15.647l0,-14.333c0,-2.251 -1.832,-4.083 -4.083,-4.083c-0.774,0 -1.49,0.228 -2.107,0.604c-0.123,-2.143 -1.888,-3.854 -4.06,-3.854c-0.764,0 -1.471,0.224 -2.083,0.591l0,-16.966c0,-2.251 -1.832,-4.083 -4.084,-4.083c-2.251,0 -4.083,1.832 -4.083,4.083l0,2.632c-0.612,-0.367 -1.319,-0.591 -2.083,-0.591c-2.252,0 -4.084,1.832 -4.084,4.083l0,24.651l-3.818,-7.038c-1.272,-2.449 -3.426,-3.37 -5.752,-2.47c-2.02,0.756 -2.837,2.761 -2.163,5.443l3.077,9.065c4.036,12.697 9.041,16.436 10.87,17.419l0,1.944c0,0.552 0.447,1 1,1s1,-0.448 1,-1l0,-2.583c0,-0.427 -0.285,-0.812 -0.689,-0.951c-0.057,-0.019 -5.72,-2.106 -10.28,-16.454l-3.061,-9.005c-0.402,-1.609 -0.083,-2.621 0.958,-3.01c1.385,-0.538 2.454,-0.039 3.273,1.539l5.339,9.837l0.347,0.714c0.203,0.419 0.67,0.642 1.123,0.538c0.454,-0.104 0.776,-0.509 0.776,-0.975l0,-28.663c0,-1.149 0.935,-2.083 2.084,-2.083c1.148,0 2.083,0.935 2.083,2.083l0,18.417l0,2.25c0,0.552 0.447,1 1,1s1,-0.448 1,-1z"/>
  <path fill="#353533" id="svg_4" d="m72.511,75.328c0.183,0 0.358,-0.101 0.446,-0.274c1.233,-2.441 1.955,-5.421 2.146,-8.859c0.016,-0.276 -0.195,-0.512 -0.472,-0.527c-0.273,-0.016 -0.511,0.196 -0.526,0.471c-0.184,3.299 -0.87,6.147 -2.041,8.464c-0.125,0.247 -0.025,0.547 0.221,0.672c0.072,0.036 0.15,0.053 0.226,0.053z"/>
  <path fill="#353533" id="svg_5" d="m70.377,77.133c-0.389,0.433 -0.651,0.629 -0.653,0.631c-0.222,0.164 -0.27,0.476 -0.106,0.698c0.098,0.134 0.25,0.205 0.403,0.205c0.103,0 0.206,-0.031 0.296,-0.097c0.034,-0.025 0.347,-0.259 0.805,-0.768c0.185,-0.206 0.168,-0.521 -0.038,-0.706c-0.204,-0.184 -0.522,-0.169 -0.707,0.037z"/>
  <path stroke="null" d="m80.996719,42.997883c1.671683,0 1.671683,0 5.015112,0c1.671683,0 3.343366,0.202591 5.015112,0.202591c1.671683,0 1.671683,0.202595 1.671683,0.202595c1.671683,0 1.671683,0 3.343366,0.202591c0,0 0,0 0,0.202595c0,0 -1.182089,0.059338 0,0.202591c1.182089,0.143257 1.671746,0.202595 1.671746,0.405186c0,0.202595 0.76697,0.140488 1.671683,0.40519c0.63974,0.187168 0,0.405186 0,0.405186c0,0.202591 0,0.202591 0,0.202591l0,0.202595l0,0" id="svg_6" stroke-opacity="null" stroke-width="null" fill="none"/>
  <path d="m79.983757,43.808254c0.202591,0 0.364059,0.051964 0.607773,0.202591c0.544975,0.336815 0.810371,0.405186 1.215561,0.60778c0.40519,0.202595 0.667114,0.261932 0.810371,0.405186c0.143257,0.143253 0.40519,0.202595 0.60778,0.405186c0.202591,0.202595 0.202591,0.405186 0.202591,0.405186c0.202591,0 0.202591,0 0.202591,0.202595c0,0 0,0 0,0.202591c0,0 0,0 0,0.405186c0,0 0,0.202595 0,0.405186c0,0.202595 0,1.012966 0,1.620743c0,1.215557 0,1.418152 0,1.823338l0,0.202595l0,0l0,0.202591" id="svg_7" stroke-opacity="null" stroke-width="null" stroke="null" fill="none"/>
  <polyline stroke-linecap="round" id="svg_8" points="-32.25272031747635,54.34308561102494 -31.847534487876356,54.74827144062493 -31.847534487876356,54.74827144062493 " stroke-opacity="null" stroke-width="null" stroke="null" fill="none"/>
 </g>
</svg>