<svg width="512" height="512" xmlns="http://www.w3.org/2000/svg">

 <g>
  <title>background</title>
  <rect fill="none" id="canvas_background" height="402" width="582" y="-1" x="-1"/>
 </g>
 <g>
  <title>Layer 1</title>
  <path id="svg_1" fill="#f7afaf" d="m354.34,417.37a48.457,48.457 0 0 0 -15.05,-16.85a47.993,47.993 0 0 0 -27.31,-79.85c0.01,-0.22 0.02,-0.44 0.02,-0.67a47.873,47.873 0 0 0 -2.73,-16a45.907,45.907 0 0 0 -2.37,-5.54a48.022,48.022 0 0 0 -65.49,-20.82a56,56 0 0 0 -98.82,0a48.012,48.012 0 0 0 -70.59,42.36c0,0.23 0.01,0.45 0.02,0.67a47.985,47.985 0 0 0 -27.31,79.85a47.944,47.944 0 0 0 -20.71,39.48a48.658,48.658 0 0 0 0.49,6.88a48.017,48.017 0 0 0 47.51,41.12l240,0a48.014,48.014 0 0 0 42.34,-70.63z"/>
  <path id="svg_2" fill="#f1a9a9" d="m309.27,304l-77.27,0a32,32 0 0 1 -32,-32l0,-23.43a56.03,56.03 0 0 1 41.41,29.07a48.032,48.032 0 0 1 67.86,26.36z"/>
  <path id="svg_3" fill="#e5a9a9" d="m360,440a48,48 0 0 1 -48,48l-240,0a48.017,48.017 0 0 1 -47.51,-41.12c97.16,-17.75 201.59,-61.91 282.41,-148.42a45.907,45.907 0 0 1 2.37,5.54a47.873,47.873 0 0 1 2.73,16c0,0.23 -0.01,0.45 -0.02,0.67a47.985,47.985 0 0 1 27.31,79.85a48.457,48.457 0 0 1 15.05,16.85a47.8,47.8 0 0 1 5.66,22.63z"/>
  <path id="svg_4" fill="#b2b2b2" d="0"/>
  <path id="svg_5" fill="#e5e5e5" d="m489.037277,57.037277l0,192a32,32 0 0 1 -32,32l-64,0l-88,56l8,-56l-104,0a32,32 0 0 1 -32,-32l0,-19.86c105.24,-28.46 213.07,-89.86 286.09,-203.56a32.007,32.007 0 0 1 25.91,31.42z"/>
  <rect id="svg_6" fill="#f35244" y="72" x="256" width="184" height="32"/>
  <rect id="svg_7" fill="#ffb531" y="200" x="256" width="136" height="32"/>
  <rect id="svg_8" fill="#fa6d00" y="136" x="256" width="96" height="32"/>
  <path fill="#353533" id="svg_9" d="m201.054,324.031l13.892,7.938a28.856,28.856 0 0 1 50.108,0l13.892,-7.938a44.856,44.856 0 0 0 -77.892,0z"/>
  <path fill="#353533" id="svg_10" d="m99.969,398.946l-7.938,-13.892a44.856,44.856 0 0 0 0,77.892l7.938,-13.892a28.856,28.856 0 0 1 0,-50.108z"/>
  <path fill="#353533" id="svg_11" d="m456,16l-248,0a40.045,40.045 0 0 0 -40,40l0,188.675a64.607,64.607 0 0 0 -28.55,22.811a56,56 0 0 0 -75.156,46.751a56.005,56.005 0 0 0 -30.732,85.055a55.991,55.991 0 0 0 38.438,96.708l240,0a55.957,55.957 0 0 0 38.435,-96.7a56.012,56.012 0 0 0 2.064,-59.306l-13.848,8.016a39.989,39.989 0 0 1 -5.24,47.086a8,8 0 0 0 1.316,12a40.623,40.623 0 0 1 12.561,14.057a40.014,40.014 0 0 1 -35.288,58.847l-72.537,0l-1.235,-1.646a31.287,31.287 0 0 1 2.892,-40.7l-11.314,-11.314a47.418,47.418 0 0 0 -9.174,53.66l-28.632,0a40,40 0 0 1 0,-80l64.716,0a44.281,44.281 0 0 0 21.884,30.946l7.937,-13.892a28.856,28.856 0 0 1 0,-50.108l-7.937,-13.892a44.281,44.281 0 0 0 -21.884,30.946l-57.248,0a59.4,59.4 0 0 0 -32.512,-45.466l-3.378,-1.689l-7.156,14.31l3.379,1.69a43.479,43.479 0 0 1 23.567,31.822a55.961,55.961 0 0 0 -30.507,95.333l-80.861,0a39.995,39.995 0 0 1 -22.732,-72.9a8,8 0 0 0 1.321,-12a39.994,39.994 0 0 1 14.48,-64.213a56.117,56.117 0 0 0 36.265,41.931l5.332,-15.086a40.068,40.068 0 0 1 -26.656,-37.2c0,-0.069 0,-0.139 0,-0.209c0,-0.1 -0.012,-0.206 -0.012,-0.314a40.045,40.045 0 0 1 40,-40a39.585,39.585 0 0 1 16.151,3.409l0.7,1.972a27.877,27.877 0 0 1 -6.512,28.962l11.314,11.314a43.951,43.951 0 0 0 10.273,-45.666l-0.548,-1.532a48.512,48.512 0 0 1 18.88,-17.245a40.063,40.063 0 0 0 37.744,26.777l94.776,0l-6.7,46.868a8,8 0 0 0 12.215,7.881l86.039,-54.749l61.67,0a40.045,40.045 0 0 0 40,-40l0,-192a40.045,40.045 0 0 0 -40,-40zm24,232a24.028,24.028 0 0 1 -24,24l-64,0a8,8 0 0 0 -4.3,1.251l-73.32,46.661l5.54,-38.78a8,8 0 0 0 -7.92,-9.132l-104,0a24.028,24.028 0 0 1 -24,-24l0,-192a24.028,24.028 0 0 1 24,-24l248,0a24.028,24.028 0 0 1 24,24l0,192z"/>
  <path fill="#353533" id="svg_12" d="m440,64l-176,0l0,-16l-16,0l0,208l16,0l0,-16l128,0a8,8 0 0 0 8,-8l0,-32a8,8 0 0 0 -8,-8l-128,0l0,-16l88,0a8,8 0 0 0 8,-8l0,-32a8,8 0 0 0 -8,-8l-88,0l0,-16l176,0a8,8 0 0 0 8,-8l0,-32a8,8 0 0 0 -8,-8zm-56,144l0,16l-120,0l0,-16l120,0zm-160,-64l0,16l40,0l0,-16l-40,0zm88,-48l-48,0l0,-16l168,0l-120,16z"/>
  <rect id="svg_13" y="64" x="200" width="32" height="16"/>
  <rect id="svg_14" y="96" x="200" width="32" height="16"/>
  <rect id="svg_15" y="128" x="200" width="32" height="16"/>
  <rect id="svg_16" y="160" x="200" width="32" height="16"/>
  <rect id="svg_17" y="192" x="200" width="32" height="16"/>
  <rect id="svg_18" y="224" x="200" width="32" height="16"/>
 </g>
</svg>