<?xml version="1.0" ?><svg height="128" id="Icons" viewBox="0 0 128 128" width="128" xmlns="http://www.w3.org/2000/svg"><defs><style>.cls-1{fill:none;stroke:#383838;stroke-linecap:round;stroke-linejoin:round;stroke-width:3px;}.cls-2{fill:#383838;}</style></defs><title/><line class="cls-1" x1="17.5" x2="17.5" y1="22.5" y2="30.5"/><line class="cls-1" x1="13.5" x2="21.5" y1="26.5" y2="26.5"/><circle class="cls-1" cx="100.59" cy="55.06" r="3.09"/><line class="cls-1" x1="100.5" x2="100.5" y1="51.5" y2="47.5"/><line class="cls-1" x1="100.5" x2="100.5" y1="63" y2="59"/><line class="cls-1" x1="108.5" x2="104.5" y1="55.5" y2="55.5"/><line class="cls-1" x1="97.5" x2="92.5" y1="55.5" y2="55.5"/><path class="cls-2" d="M30.41,122.19a1.72,1.72,0,1,0-1.72-1.72A1.73,1.73,0,0,0,30.41,122.19Z"/><path class="cls-1" d="M53.71,15.2c-.22,4.27-4,9.51-8.22,9.29S38,18.67,38.26,14.41a7.74,7.74,0,1,1,15.45.79Z"/><polyline class="cls-1" points="67.52 54.15 65.88 46.04 66.47 37.72 85.16 33.27 96.11 21.57 91.73 16.75 80.78 25.5 58.5 25.75"/><path class="cls-1" d="M40.59,32.66s-27.28,21-27,21.17,3.5,4.92,3.5,4.92L40.9,44.52,42.49,49"/><path class="cls-1" d="M44.5,90.29,38.34,60a6.08,6.08,0,1,1,12-1.64l2.23,28.42"/><path class="cls-1" d="M50.53,60.12S72.3,57,75.09,57s5.75,2.06,5.59,6.62l-.8,23.64"/><path class="cls-1" d="M82.5,95.5V92.36a5.5,5.5,0,0,0-11,0V95.5"/><path class="cls-1" d="M55.5,94.5V91.57a5.5,5.5,0,0,0-11,0v2.1"/><polyline class="cls-1" points="42.49 24.99 39.93 32.61 53.5 33.74 59.92 25.71 50.43 23"/><polyline class="cls-1" points="53.5 33.74 56.86 40.97 57.7 53.77"/><path class="cls-1" d="M91.73,16.75l3.33-3.33a3.45,3.45,0,1,1,4.33,5.37l-3.28,2.77"/><path class="cls-1" d="M17.1,58.75l-3.41,3.37a3.46,3.46,0,1,1-4.24-5.45l4.15-2.84"/><path class="cls-1" d="M71.91,90.29,71.8,67.51s-6,4.2-11.88,4.82-8.53-1.61-8.53-1.61"/><path class="cls-1" d="M48.79,6.28a3.87,3.87,0,1,1,5,5.17"/><polyline class="cls-1" points="38.46 13 45.88 12.73 52.62 19.17"/><path class="cls-1" d="M95,124q-3.54-.57-7-1.43a140.36,140.36,0,0,0-25-3.79c-2.76-.16-5.55-.24-8.31-.24a140.06,140.06,0,0,0-17,1"/><path class="cls-1" d="M92.17,115.79a85.8,85.8,0,0,0,15.46,2.34l1.8.11a10,10,0,0,0,1.19-19.95L21.42,93a10,10,0,1,0-1.19,20l1.8.1a85.83,85.83,0,0,0,15.62-.49,151.62,151.62,0,0,1,54.52,3.25Z"/><line class="cls-1" x1="102.23" x2="85.83" y1="97.94" y2="114.34"/><line class="cls-1" x1="103" x2="97.72" y1="107.14" y2="112.42"/></svg>